<?xml version="1.0" standalone="no"?>
<!DOCTYPE svg PUBLIC "-//W3C//DTD SVG 20010904//EN"
 "http://www.w3.org/TR/2001/REC-SVG-20010904/DTD/svg10.dtd">
<svg version="1.0" xmlns="http://www.w3.org/2000/svg"
 width="960.000000pt" height="679.000000pt" viewBox="0 0 960.000000 679.000000"
 preserveAspectRatio="xMidYMid meet">

<g transform="translate(0.000000,679.000000) scale(0.100000,-0.100000)"
fill="#000000" stroke="none">
<path d="M0 4375 l0 -2415 27 -13 c15 -6 38 -22 51 -34 19 -18 28 -20 44 -12
11 6 22 8 26 5 3 -3 0 -6 -6 -6 -19 0 -14 -24 9 -38 11 -7 30 -10 42 -6 19 6
20 5 8 -10 -11 -14 -11 -16 2 -16 9 0 20 -7 25 -16 7 -13 13 -14 30 -5 26 14
43 14 20 0 -10 -5 -18 -14 -18 -18 0 -14 52 -32 74 -25 19 6 19 5 6 -11 -12
-15 -11 -19 10 -35 22 -17 27 -17 47 -4 12 7 28 14 35 14 7 0 1 -8 -15 -18
l-27 -19 25 -13 c13 -7 22 -17 19 -22 -4 -5 8 -2 25 6 33 17 42 11 14 -9 -18
-14 -8 -39 12 -31 9 3 12 -2 10 -15 -4 -20 -4 -20 29 0 42 27 55 27 25 1 -20
-16 -22 -21 -10 -29 9 -6 22 -6 32 0 27 14 36 10 15 -6 -11 -8 -17 -18 -13
-21 4 -4 13 -1 22 6 8 7 23 9 32 5 15 -5 12 -9 -16 -21 -41 -17 -52 -18 -48
-1 1 6 -4 11 -11 9 -7 -1 -18 3 -25 9 -11 9 -172 123 -432 304 l-95 66 0 -581
c0 -462 3 -580 13 -574 10 6 10 4 0 -7 -18 -18 -18 -183 -1 -173 10 6 10 4 1
-7 -10 -10 -13 -84 -13 -301 l0 -288 4800 0 4800 0 0 1308 c0 719 -4 1312 -8
1317 -5 6 -21 40 -36 77 -16 38 -33 65 -38 62 -6 -4 -8 2 -3 15 7 23 -4 28
-23 9 -9 -9 -12 -9 -12 0 0 7 5 12 10 12 6 0 10 9 10 21 0 15 -5 19 -15 15
-12 -4 -14 0 -9 19 6 26 -3 32 -24 15 -9 -7 -9 -7 -2 2 6 7 10 21 10 33 -1 19
-2 19 -22 -5 -17 -20 -20 -21 -14 -5 16 40 18 55 8 55 -6 0 -13 -6 -16 -12 -3
-7 -2 0 1 16 4 22 3 27 -7 21 -10 -6 -11 -2 -6 19 4 15 2 26 -4 26 -5 0 -10
-4 -10 -10 0 -5 -5 -10 -12 -10 -9 0 -9 3 0 12 7 7 12 19 12 28 -1 12 -4 11
-15 -4 -14 -19 -15 -19 -35 -1 -11 10 -20 23 -20 28 0 6 8 0 19 -11 18 -22 31
-20 31 5 0 8 -5 11 -11 7 -9 -5 -10 1 -5 22 5 23 4 25 -4 12 -10 -16 -13 -15
-40 9 -17 14 -30 31 -30 37 1 6 10 0 20 -13 11 -13 20 -19 20 -15 0 5 5 2 10
-6 9 -13 10 -13 10 0 0 16 -20 51 -20 36 0 -5 -6 -3 -14 3 -7 6 -11 22 -9 34
4 19 -10 37 -67 90 -91 84 -144 111 -235 115 -171 9 -346 -117 -670 -483 -141
-159 -235 -272 -235 -280 0 -12 13 1 93 92 108 125 341 356 432 428 215 172
388 216 546 138 35 -18 76 -44 89 -59 19 -21 11 -18 -34 14 -100 70 -204 89
-317 56 -158 -46 -332 -187 -663 -539 -78 -82 -145 -150 -151 -150 -5 0 -10
-6 -10 -13 0 -8 -12 -24 -26 -35 -30 -25 -113 -119 -86 -98 38 30 14 -8 -38
-59 -30 -29 -52 -56 -50 -60 2 -4 -13 -24 -35 -45 -22 -21 -37 -41 -35 -45 3
-4 -20 -31 -51 -60 l-56 -53 53 7 c28 4 66 9 83 12 24 3 26 2 11 -4 -11 -5
-55 -15 -97 -22 -43 -7 -75 -16 -73 -20 3 -5 -14 -22 -37 -40 l-43 -31 55 7
c69 8 62 -2 -10 -16 -30 -6 -56 -14 -59 -18 -4 -4 -24 -22 -45 -41 l-40 -34
50 7 c27 4 63 9 79 13 17 3 27 3 24 -1 -3 -3 -41 -12 -84 -21 -71 -13 -84 -20
-120 -56 -37 -37 -38 -40 -15 -35 58 11 105 16 85 7 -11 -4 -42 -12 -70 -16
-46 -6 -57 -14 -138 -96 l-89 -90 43 6 c42 5 42 4 -9 -9 -51 -13 -82 -37 -218
-170 -64 -63 -326 -283 -419 -352 -33 -25 -68 -51 -77 -59 -10 -8 -36 -26 -58
-41 -22 -15 -40 -31 -40 -35 0 -5 -6 -9 -14 -9 -7 0 -33 -15 -57 -33 -24 -19
-60 -42 -79 -52 -19 -10 -37 -21 -40 -25 -19 -27 -570 -329 -602 -330 -5 0 -8
5 -8 10 0 6 5 10 12 10 16 0 196 89 203 101 4 5 15 9 26 9 10 0 19 5 19 10 0
6 9 10 20 10 11 0 20 4 20 8 0 5 16 14 35 22 19 8 35 17 35 20 0 3 16 12 35
20 19 8 35 17 35 22 0 4 5 8 10 8 6 0 38 18 71 40 33 22 63 40 65 40 3 0 35
21 72 47 37 26 87 60 112 77 25 16 47 33 50 36 3 4 28 22 55 40 28 19 55 39
60 45 6 6 29 24 53 39 23 16 42 32 42 37 0 4 8 10 18 14 9 3 36 22 58 43 23
20 82 71 132 112 50 41 91 79 91 83 1 5 -4 5 -9 2 -6 -4 -25 -8 -43 -10 -159
-17 -440 -56 -505 -71 -13 -2 -21 -1 -18 4 3 5 25 12 48 16 50 8 277 84 296
99 7 6 48 25 90 42 42 17 99 46 126 63 28 18 54 32 58 32 23 0 302 197 383
270 70 63 256 251 321 325 39 44 182 213 318 375 290 345 439 512 533 596 238
212 395 262 563 182 51 -25 185 -156 215 -211 11 -21 23 -37 27 -37 5 0 8 -5
8 -10 0 -6 12 -29 27 -53 28 -44 56 -96 130 -237 25 -47 49 -89 54 -95 5 -5 9
787 9 2028 l0 2037 -4800 0 -4800 0 0 -2415z m9063 -1142 c-18 -2 -48 -2 -65
0 -18 2 -4 4 32 4 36 0 50 -2 33 -4z m-173 -29 c-169 -58 -315 -169 -643 -493
-131 -129 -244 -236 -253 -237 -12 -2 -13 1 -4 11 7 8 15 14 18 13 4 -1 108
100 232 223 235 235 353 336 482 415 79 47 187 93 223 93 11 0 -14 -11 -55
-25z m280 10 c59 -24 45 -26 -20 -4 -30 11 -47 19 -38 20 10 0 36 -7 58 -16z
m-77 -61 c-13 -2 -35 -2 -50 0 -16 2 -5 4 22 4 28 0 40 -2 28 -4z m-106 -9
c-3 -3 -12 -4 -19 -1 -8 3 -5 6 6 6 11 1 17 -2 13 -5z m-158 -48 c-10 -9 -89
-46 -89 -41 0 6 72 44 84 45 5 0 7 -2 5 -4z m480 -29 c0 -9 -2 -9 -6 1 -2 6
-11 12 -19 12 -8 0 -14 5 -14 10 0 7 6 7 20 0 11 -6 20 -16 19 -23z m-201 6
c-10 -2 -26 -2 -35 0 -10 3 -2 5 17 5 19 0 27 -2 18 -5z m-392 -36 c-139 -89
-314 -230 -515 -417 -218 -203 -274 -250 -146 -124 127 125 313 292 430 386
79 62 232 168 243 167 4 0 -1 -6 -12 -12z m574 -9 c0 -5 -9 -4 -20 2 -11 6
-20 12 -20 14 0 2 9 2 20 -1 11 -3 20 -9 20 -15z m-12 -50 c6 -1 12 -5 12 -10
0 -10 -35 -2 -60 14 -11 7 -8 8 10 3 14 -4 31 -7 38 -7z m117 -18 c3 -5 1 -10
-4 -10 -6 0 -11 5 -11 10 0 6 2 10 4 10 3 0 8 -4 11 -10z m-162 -47 c-7 -2
-19 -2 -25 0 -7 3 -2 5 12 5 14 0 19 -2 13 -5z m67 -77 c0 -3 -4 -8 -10 -11
-5 -3 -10 -1 -10 4 0 6 5 11 10 11 6 0 10 -2 10 -4z m-940 -130 c0 -2 -8 -10
-17 -17 -16 -13 -17 -12 -4 4 13 16 21 21 21 13z m767 -32 c-3 -3 -12 -4 -19
-1 -8 3 -5 6 6 6 11 1 17 -2 13 -5z m-827 -18 c0 -2 -8 -10 -17 -17 -16 -13
-17 -12 -4 4 13 16 21 21 21 13z m-213 -183 c-102 -92 -122 -107 -43 -31 45
43 84 78 88 78 4 0 -16 -21 -45 -47z m-157 -86 c0 -2 -12 -14 -27 -28 l-28
-24 24 28 c23 25 31 32 31 24z m20 -30 c0 -2 -12 -14 -27 -28 l-28 -24 24 28
c23 25 31 32 31 24z m10 -30 c0 -2 -10 -12 -22 -23 l-23 -19 19 23 c18 21 26
27 26 19z m-60 -51 c0 -2 -8 -10 -17 -17 -16 -13 -17 -12 -4 4 13 16 21 21 21
13z m992 -68 c-7 -7 -12 -8 -12 -2 0 14 12 26 19 19 2 -3 -1 -11 -7 -17z
m-597 -8 c-11 -5 -27 -9 -35 -9 -9 0 -8 4 5 9 11 5 27 9 35 9 9 0 8 -4 -5 -9z
m158 3 c-7 -2 -21 -2 -30 0 -10 3 -4 5 12 5 17 0 24 -2 18 -5z m185 0 c-10 -2
-26 -2 -35 0 -10 3 -2 5 17 5 19 0 27 -2 18 -5z m-488 -13 c-8 -5 -24 -9 -35
-9 l-20 0 20 9 c11 5 27 9 35 9 13 1 13 0 0 -9z m688 -7 c-10 -2 -26 -2 -35 0
-10 3 -2 5 17 5 19 0 27 -2 18 -5z m81 -9 c2 -2 -10 -4 -27 -4 -18 0 -32 5
-32 10 0 9 47 4 59 -6z m-889 2 c0 -2 -11 -6 -25 -8 -13 -3 -22 -1 -19 3 5 9
44 13 44 5z m-105 -16 c-11 -5 -27 -9 -35 -9 -13 -1 -13 0 0 9 8 5 24 9 35 9
l20 0 -20 -9z m1100 -10 c-3 -5 -10 -10 -16 -10 -5 0 -9 5 -9 10 0 6 7 10 16
10 8 0 12 -4 9 -10z m-420 -30 c-11 -5 -27 -9 -35 -9 -9 0 -8 4 5 9 11 5 27 9
35 9 9 0 8 -4 -5 -9z m-370 -10 c-11 -5 -27 -9 -35 -9 -9 0 -8 4 5 9 11 5 27
9 35 9 9 0 8 -4 -5 -9z m162 4 c-3 -3 -12 -4 -19 -1 -8 3 -5 6 6 6 11 1 17 -2
13 -5z m488 -14 c14 -5 8 -7 -22 -6 -24 0 -43 4 -43 9 0 9 39 8 65 -3z m-818
-6 c-3 -3 -12 -4 -19 -1 -8 3 -5 6 6 6 11 1 17 -2 13 -5z m-122 -14 c-11 -5
-29 -9 -40 -9 l-20 0 20 9 c11 5 29 9 40 9 l20 0 -20 -9z m-99 -9 c-6 -9 -56
-22 -56 -14 0 4 40 21 53 22 5 1 6 -3 3 -8z m964 -11 c-6 -11 -13 -20 -16 -20
-2 0 0 9 6 20 6 11 13 20 16 20 2 0 0 -9 -6 -20z m-1065 -10 c-27 -12 -43 -12
-25 0 8 5 22 9 30 9 10 0 8 -3 -5 -9z m1195 6 c0 -2 -8 -10 -17 -17 -16 -13
-17 -12 -4 4 13 16 21 21 21 13z m-342 -23 c-10 -2 -26 -2 -35 0 -10 3 -2 5
17 5 19 0 27 -2 18 -5z m-325 -10 c-7 -2 -19 -2 -25 0 -7 3 -2 5 12 5 14 0 19
-2 13 -5z m545 0 c-10 -2 -26 -2 -35 0 -10 3 -2 5 17 5 19 0 27 -2 18 -5z
m-675 -10 c-7 -2 -19 -2 -25 0 -7 3 -2 5 12 5 14 0 19 -2 13 -5z m767 4 c0 -2
-12 -14 -27 -28 l-26 -24 19 27 c16 23 34 36 34 25z m-7803 -13 c-3 -3 -12 -4
-19 -1 -8 3 -5 6 6 6 11 1 17 -2 13 -5z m6883 -4 c-34 -11 -60 -11 -35 0 11 5
29 8 40 8 16 0 15 -2 -5 -8z m780 -10 c-6 -11 -13 -20 -16 -20 -2 0 0 9 6 20
6 11 13 20 16 20 2 0 0 -9 -6 -20z m-6453 4 c-3 -3 -12 -4 -19 -1 -8 3 -5 6 6
6 11 1 17 -2 13 -5z m-314 -11 c-7 -2 -19 -2 -25 0 -7 3 -2 5 12 5 14 0 19 -2
13 -5z m5837 -3 c-34 -11 -60 -11 -35 0 11 5 29 8 40 8 16 0 15 -2 -5 -8z
m-100 -9 c-8 -5 -26 -11 -40 -15 -21 -5 -20 -3 5 9 32 15 60 20 35 6z m1026
-31 c-20 -3 -36 -16 -49 -38 l-19 -32 29 -1 c26 -2 25 -2 -6 -8 -25 -4 -40
-15 -54 -38 l-19 -33 43 0 c53 0 46 -10 -12 -15 -32 -3 -48 -11 -65 -32 -30
-36 -30 -43 4 -44 24 -2 24 -2 -7 -8 -41 -7 -98 -71 -64 -71 20 0 16 -5 -226
-253 l-106 -109 62 4 c34 1 59 0 55 -4 -4 -4 -34 -8 -67 -9 -54 -2 -64 -6
-100 -41 l-40 -37 50 -2 50 -1 -60 -12 c-64 -12 -88 -23 -80 -35 2 -5 -5 -17
-17 -27 -12 -11 -18 -13 -14 -6 12 20 -9 14 -30 -9 -19 -22 -19 -22 1 -12 11
6 29 7 40 3 22 -9 15 -13 -37 -24 -16 -4 -28 -11 -28 -17 0 -7 5 -8 13 -3 40
27 -58 -54 -111 -91 -34 -25 -68 -49 -75 -55 -68 -56 -470 -326 -615 -413
-119 -71 -190 -109 -158 -82 11 8 25 15 30 15 6 0 4 5 -4 10 -12 8 -11 10 7
10 12 0 48 16 80 35 35 21 50 35 39 35 -26 0 -15 10 19 16 23 4 102 51 125 74
3 3 21 14 40 24 51 28 230 147 236 157 10 17 -31 -4 -94 -48 -35 -23 -65 -43
-67 -43 -3 0 -38 -20 -79 -44 -73 -43 -116 -63 -116 -52 0 3 20 14 45 25 25
11 71 36 102 57 136 87 253 167 278 190 14 13 29 24 32 24 7 0 83 59 106 82
10 10 21 18 25 18 4 0 25 17 48 38 49 44 100 82 112 82 13 0 53 46 46 53 -4 4
2 10 12 14 43 16 321 312 431 459 121 162 217 306 213 320 -3 13 21 21 48 15
l27 -5 -29 -6z m-7679 4 c-3 -3 -12 -4 -19 -1 -8 3 -5 6 6 6 11 1 17 -2 13 -5z
m6986 -21 c-7 -2 -19 -2 -25 0 -7 3 -2 5 12 5 14 0 19 -2 13 -5z m-164 -17
c-2 -2 -20 -6 -39 -10 -25 -4 -31 -3 -20 4 14 9 69 15 59 6z m-172 -22 c-3 -3
-12 -4 -19 -1 -8 3 -5 6 6 6 11 1 17 -2 13 -5z m-40 -10 c-3 -3 -12 -4 -19 -1
-8 3 -5 6 6 6 11 1 17 -2 13 -5z m-5644 -11 c-7 -2 -19 -2 -25 0 -7 3 -2 5 12
5 14 0 19 -2 13 -5z m286 -9 c8 -7 -54 -2 -79 6 -17 6 -9 7 25 3 28 -3 52 -7
54 -9z m5256 6 c-11 -5 -27 -9 -35 -9 -9 0 -8 4 5 9 11 5 27 9 35 9 9 0 8 -4
-5 -9z m878 3 c-7 -2 -19 -2 -25 0 -7 3 -2 5 12 5 14 0 19 -2 13 -5z m321 -2
c-9 -9 -34 -9 -34 -1 0 5 9 8 20 7 10 -1 17 -3 14 -6z m-7797 -7 c-3 -3 -12
-4 -19 -1 -8 3 -5 6 6 6 11 1 17 -2 13 -5z m1438 -4 c27 -7 27 -8 5 -8 -14 0
-36 4 -50 8 -20 6 -21 8 -5 8 11 0 34 -4 50 -8z m122 -6 c-3 -3 -12 -4 -19 -1
-8 3 -5 6 6 6 11 1 17 -2 13 -5z m-1440 -10 c-3 -3 -12 -4 -19 -1 -8 3 -5 6 6
6 11 1 17 -2 13 -5z m450 0 c-3 -3 -12 -4 -19 -1 -8 3 -5 6 6 6 11 1 17 -2 13
-5z m1040 0 c-3 -3 -12 -4 -19 -1 -8 3 -5 6 6 6 11 1 17 -2 13 -5z m-1342 -14
c-3 -5 -16 -10 -28 -9 -20 1 -20 2 3 9 14 4 26 8 28 9 2 1 0 -3 -3 -9z m1518
3 c-7 -2 -21 -2 -30 0 -10 3 -4 5 12 5 17 0 24 -2 18 -5z m-815 -10 c-10 -2
-28 -2 -40 0 -13 2 -5 4 17 4 22 1 32 -1 23 -4z m859 1 c-3 -3 -12 -4 -19 -1
-8 3 -5 6 6 6 11 1 17 -2 13 -5z m5010 0 c-3 -3 -12 -4 -19 -1 -8 3 -5 6 6 6
11 1 17 -2 13 -5z m-6427 -14 c-8 -5 -26 -9 -40 -9 -23 1 -23 2 5 9 43 11 52
11 35 0z m797 4 c-3 -3 -12 -4 -19 -1 -8 3 -5 6 6 6 11 1 17 -2 13 -5z m760 0
c-3 -3 -12 -4 -19 -1 -8 3 -5 6 6 6 11 1 17 -2 13 -5z m4796 -1 c-7 -2 -19 -2
-25 0 -7 3 -2 5 12 5 14 0 19 -2 13 -5z m-7066 -9 c-3 -3 -12 -4 -19 -1 -8 3
-5 6 6 6 11 1 17 -2 13 -5z m2320 0 c-3 -3 -12 -4 -19 -1 -8 3 -5 6 6 6 11 1
17 -2 13 -5z m4573 -14 c-14 -4 -36 -8 -50 -8 -22 0 -22 1 5 8 17 4 39 8 50 8
16 0 15 -2 -5 -8z m-6032 -7 c-10 -2 -28 -2 -40 0 -13 2 -5 4 17 4 22 1 32 -1
23 -4z m7367 -3 c-3 -5 -12 -10 -18 -10 -7 0 -6 4 3 10 19 12 23 12 15 0z
m-1455 -10 c-14 -4 -34 -8 -45 -8 l-20 -1 20 9 c11 5 31 8 45 8 l25 0 -25 -8z
m1497 4 c-3 -3 -12 -4 -19 -1 -8 3 -5 6 6 6 11 1 17 -2 13 -5z m-7264 -11 c-7
-2 -21 -2 -30 0 -10 3 -4 5 12 5 17 0 24 -2 18 -5z m-526 -9 c-3 -3 -12 -4
-19 -1 -8 3 -5 6 6 6 11 1 17 -2 13 -5z m1018 -14 c41 -9 8 -7 -250 10 -110 8
-106 8 45 4 91 -3 183 -9 205 -14z m1172 14 c-3 -3 -12 -4 -19 -1 -8 3 -5 6 6
6 11 1 17 -2 13 -5z m3990 0 c-3 -3 -12 -4 -19 -1 -8 3 -5 6 6 6 11 1 17 -2
13 -5z m-6140 -10 c-3 -3 -12 -4 -19 -1 -8 3 -5 6 6 6 11 1 17 -2 13 -5z
m1138 -15 c12 -5 1 -6 -30 -3 -27 4 -57 10 -65 15 -19 10 68 -1 95 -12z m110
-10 c12 -5 2 -6 -25 -2 -25 3 -49 10 -55 14 -10 10 47 1 80 -12z m-1128 5 c-3
-3 -12 -4 -19 -1 -8 3 -5 6 6 6 11 1 17 -2 13 -5z m1220 -10 c-3 -3 -12 -4
-19 -1 -8 3 -5 6 6 6 11 1 17 -2 13 -5z m-1078 -8 c-12 -10 -60 -16 -54 -6 3
5 18 10 32 10 15 0 24 -2 22 -4z m1204 -3 c-7 -2 -19 -2 -25 0 -7 3 -2 5 12 5
14 0 19 -2 13 -5z m6192 -3 c-3 -5 -12 -10 -18 -10 -7 0 -6 4 3 10 19 12 23
12 15 0z m-7765 -10 c0 -5 -7 -10 -15 -10 -8 0 -15 5 -15 10 0 6 7 10 15 10 8
0 15 -4 15 -10z m1617 4 c-3 -3 -12 -4 -19 -1 -8 3 -5 6 6 6 11 1 17 -2 13 -5z
m-2097 -14 c0 -5 -5 -10 -11 -10 -5 0 -7 5 -4 10 3 6 8 10 11 10 2 0 4 -4 4
-10z m300 0 c0 -5 -10 -10 -22 -9 -22 0 -22 1 -3 9 11 5 21 9 23 9 1 1 2 -3 2
-9z m667 4 c-3 -3 -12 -4 -19 -1 -8 3 -5 6 6 6 11 1 17 -2 13 -5z m226 -1 c-7
-2 -21 -2 -30 0 -10 3 -4 5 12 5 17 0 24 -2 18 -5z m1024 1 c-3 -3 -12 -4 -19
-1 -8 3 -5 6 6 6 11 1 17 -2 13 -5z m4553 -4 c-14 -4 -36 -8 -50 -8 -22 0 -22
1 5 8 17 4 39 8 50 8 16 0 15 -2 -5 -8z m-6630 -10 c0 -5 -7 -10 -16 -10 -8 0
-12 5 -9 10 3 6 10 10 16 10 5 0 9 -4 9 -10z m2117 4 c-3 -3 -12 -4 -19 -1 -8
3 -5 6 6 6 11 1 17 -2 13 -5z m-1670 -10 c-3 -3 -12 -4 -19 -1 -8 3 -5 6 6 6
11 1 17 -2 13 -5z m1868 -15 c34 -13 -6 -10 -60 6 l-50 15 45 -7 c25 -3 54 -9
65 -14z m-2075 1 c13 -9 13 -10 0 -10 -8 0 -22 5 -30 10 -13 9 -13 10 0 10 8
0 22 -5 30 -10z m-293 -6 c-3 -3 -12 -4 -19 -1 -8 3 -5 6 6 6 11 1 17 -2 13
-5z m143 -4 c0 -12 -8 -12 -35 0 -18 8 -17 9 8 9 15 1 27 -3 27 -9z m1013 3
c-7 -2 -19 -2 -25 0 -7 3 -2 5 12 5 14 0 19 -2 13 -5z m-1193 -23 c0 -13 -11
-13 -30 0 -12 8 -11 10 8 10 12 0 22 -4 22 -10z m87 4 c-3 -3 -12 -4 -19 -1
-8 3 -5 6 6 6 11 1 17 -2 13 -5z m130 0 c-3 -3 -12 -4 -19 -1 -8 3 -5 6 6 6
11 1 17 -2 13 -5z m208 -4 c13 -5 14 -9 5 -9 -8 0 -24 4 -35 9 -13 5 -14 9 -5
9 8 0 24 -4 35 -9z m1015 0 c47 -6 41 -7 -42 -6 -54 1 -98 4 -98 9 0 9 66 8
140 -3z m1229 -6 c77 -22 58 -26 -24 -4 -39 10 -61 19 -49 19 11 1 44 -6 73
-15z m4248 10 c-3 -3 -12 -4 -19 -1 -8 3 -5 6 6 6 11 1 17 -2 13 -5z m1153 2
c0 -2 -7 -7 -16 -10 -8 -3 -12 -2 -9 4 6 10 25 14 25 6z m-7323 -12 c-3 -3
-12 -4 -19 -1 -8 3 -5 6 6 6 11 1 17 -2 13 -5z m-776 -19 c19 -8 27 -14 19
-14 -14 0 -72 28 -59 29 4 0 22 -7 40 -15z m69 11 c0 -11 -19 -15 -25 -6 -3 5
1 10 9 10 9 0 16 -2 16 -4z m100 -6 c13 -9 13 -10 0 -10 -8 0 -22 5 -30 10
-13 9 -13 10 0 10 8 0 22 -5 30 -10z m145 0 c13 -6 15 -9 5 -9 -8 0 -22 4 -30
9 -18 12 -2 12 25 0z m1465 -5 c19 -1 76 -8 125 -15 50 -7 106 -13 125 -15 40
-3 124 -24 118 -30 -2 -2 -24 1 -48 6 -25 6 -61 12 -80 14 -19 2 -73 8 -120
14 -47 7 -123 14 -170 17 -47 3 -107 9 -135 14 -37 7 -24 7 50 3 55 -4 116 -7
135 -8z m2180 5 c8 -5 11 -10 5 -10 -5 0 -17 5 -25 10 -8 5 -10 10 -5 10 6 0
17 -5 25 -10z m-3405 -10 c25 -11 -1 -11 -35 0 -20 6 -21 8 -5 8 11 0 29 -3
40 -8z m340 0 c-27 -12 -35 -12 -35 0 0 6 12 10 28 9 24 0 25 -1 7 -9z m2025
-10 c44 -14 52 -18 25 -14 -33 5 -110 31 -95 33 3 0 34 -9 70 -19z m-2800 0
c0 -5 -8 -10 -17 -10 -15 0 -16 2 -3 10 19 12 20 12 20 0z m122 -12 c-9 -9
-15 -9 -24 0 -9 9 -7 12 12 12 19 0 21 -3 12 -12z m162 3 c3 -5 -8 -11 -24
-13 -24 -4 -27 -2 -19 9 13 15 35 17 43 4z m601 -1 c-3 -5 -12 -10 -18 -10 -7
0 -6 4 3 10 19 12 23 12 15 0z m-935 -10 c8 -5 11 -12 7 -16 -4 -4 -15 0 -24
9 -18 18 -8 23 17 7z m603 -1 c-8 -8 -19 -8 -40 -1 -28 10 -28 10 12 11 28 1
36 -2 28 -10z m-503 -9 c0 -5 -7 -7 -15 -4 -8 4 -15 8 -15 10 0 2 7 4 15 4 8
0 15 -4 15 -10z m970 0 c0 -5 -12 -10 -27 -9 l-28 1 25 8 c14 4 26 8 28 9 1 1
2 -3 2 -9z m197 4 c-3 -3 -12 -4 -19 -1 -8 3 -5 6 6 6 11 1 17 -2 13 -5z
m1690 0 c-3 -3 -12 -4 -19 -1 -8 3 -5 6 6 6 11 1 17 -2 13 -5z m-2954 -31 c28
-16 57 -34 65 -40 7 -7 20 -13 28 -13 8 0 14 -4 14 -10 0 -14 -4 -13 -60 20
-28 17 -54 30 -59 30 -4 0 -18 9 -31 20 -32 28 -17 25 43 -7z m251 18 c18 -7
18 -8 3 -14 -9 -3 -17 -2 -17 3 0 5 -8 11 -17 13 -12 3 -13 5 -3 5 8 0 24 -3
34 -7z m171 -1 c3 -6 -4 -10 -17 -10 -18 0 -20 2 -8 10 19 12 18 12 25 0z
m1048 3 c-7 -2 -21 -2 -30 0 -10 3 -4 5 12 5 17 0 24 -2 18 -5z m717 -19 c32
-13 32 -14 5 -9 -54 11 -105 26 -105 31 0 7 56 -5 100 -22z m807 20 c-3 -3
-12 -4 -19 -1 -8 3 -5 6 6 6 11 1 17 -2 13 -5z m-3081 -19 c-10 -8 -23 -12
-28 -9 -14 9 2 24 25 24 21 -1 21 -1 3 -15z m131 9 c-3 -3 -12 -4 -19 -1 -8 3
-5 6 6 6 11 1 17 -2 13 -5z m98 -4 c13 -6 15 -9 5 -9 -8 0 -22 4 -30 9 -18 12
-2 12 25 0z m595 -5 c0 -2 -18 -5 -41 -7 -32 -3 -37 -1 -25 8 13 9 66 8 66 -1z
m2297 9 c-3 -3 -12 -4 -19 -1 -8 3 -5 6 6 6 11 1 17 -2 13 -5z m4791 -1 c-10
-2 -26 -2 -35 0 -10 3 -2 5 17 5 19 0 27 -2 18 -5z m-6651 -9 c-3 -3 -12 -4
-19 -1 -8 3 -5 6 6 6 11 1 17 -2 13 -5z m1128 -14 c28 -10 43 -18 35 -18 -8 0
-37 8 -65 18 -27 10 -43 18 -35 18 8 0 38 -8 65 -18z m-2340 0 c3 -5 1 -10 -4
-10 -6 0 -11 -4 -11 -10 0 -5 9 -10 21 -10 13 0 18 4 13 11 -4 7 13 0 37 -15
75 -46 89 -52 99 -36 6 11 15 9 42 -9 18 -13 26 -21 18 -18 -8 2 -25 7 -37 11
-44 14 -22 -13 40 -48 44 -25 56 -35 40 -36 -13 0 -23 5 -23 10 0 6 -5 10 -12
10 -6 0 -26 11 -44 25 -32 25 -54 32 -54 18 0 -5 36 -30 80 -57 44 -27 80 -51
80 -52 0 -2 -9 -4 -21 -4 -11 0 -17 5 -14 10 3 6 -1 10 -9 10 -9 0 -16 5 -16
10 0 6 -7 10 -15 10 -16 0 -77 39 -83 53 -2 4 -9 7 -16 7 -7 0 -21 9 -31 20
-20 22 -14 26 15 10 11 -6 21 -6 25 -1 7 13 -30 24 -55 16 -14 -4 -32 3 -59
24 -21 17 -45 31 -52 31 -8 0 -5 6 7 15 23 17 31 18 39 5z m135 0 c0 -5 -7
-10 -15 -10 -8 0 -15 5 -15 10 0 6 7 10 15 10 8 0 15 -4 15 -10z m213 3 c-7
-2 -19 -2 -25 0 -7 3 -2 5 12 5 14 0 19 -2 13 -5z m-88 -13 c3 -5 -3 -10 -14
-10 -11 0 -24 -8 -30 -17 -7 -14 -13 -15 -33 -6 l-23 12 26 0 c15 1 32 8 39
16 14 17 26 19 35 5z m303 1 c9 -5 4 -8 -16 -7 -17 1 -28 4 -25 9 6 9 25 9 41
-2z m279 3 c-3 -3 -12 -4 -19 -1 -8 3 -5 6 6 6 11 1 17 -2 13 -5z m506 -1 c-7
-2 -19 -2 -25 0 -7 3 -2 5 12 5 14 0 19 -2 13 -5z m1084 1 c-3 -3 -12 -4 -19
-1 -8 3 -5 6 6 6 11 1 17 -2 13 -5z m-2040 -10 c-3 -3 -12 -4 -19 -1 -8 3 -5
6 6 6 11 1 17 -2 13 -5z m2080 0 c-3 -3 -12 -4 -19 -1 -8 3 -5 6 6 6 11 1 17
-2 13 -5z m-1350 -10 c-3 -3 -12 -4 -19 -1 -8 3 -5 6 6 6 11 1 17 -2 13 -5z
m366 -1 c-13 -2 -33 -2 -45 0 -13 2 -3 4 22 4 25 0 35 -2 23 -4z m614 1 c-3
-3 -12 -4 -19 -1 -8 3 -5 6 6 6 11 1 17 -2 13 -5z m558 -8 c38 -9 49 -14 30
-14 -16 0 -48 5 -70 13 -53 17 -35 17 40 1z m-2222 -3 c-7 -2 -19 -2 -25 0 -7
3 -2 5 12 5 14 0 19 -2 13 -5z m204 1 c-3 -3 -12 -4 -19 -1 -8 3 -5 6 6 6 11
1 17 -2 13 -5z m316 -1 c-7 -2 -21 -2 -30 0 -10 3 -4 5 12 5 17 0 24 -2 18 -5z
m635 0 c-16 -2 -40 -2 -55 0 -16 2 -3 4 27 4 30 0 43 -2 28 -4z m3119 1 c-3
-3 -12 -4 -19 -1 -8 3 -5 6 6 6 11 1 17 -2 13 -5z m-4372 -14 c-3 -5 -13 -10
-21 -10 -8 0 -12 5 -9 10 3 6 13 10 21 10 8 0 12 -4 9 -10z m140 0 c-3 -5 -10
-10 -16 -10 -5 0 -9 5 -9 10 0 6 7 10 16 10 8 0 12 -4 9 -10z m1218 3 c-13 -2
-33 -2 -45 0 -13 2 -3 4 22 4 25 0 35 -2 23 -4z m4134 1 c-3 -3 -12 -4 -19 -1
-8 3 -5 6 6 6 11 1 17 -2 13 -5z m-5102 -14 c14 -7 8 -8 -20 -3 -22 3 -42 7
-44 9 -9 8 45 2 64 -6z m320 0 c-3 -5 -11 -10 -16 -10 -6 0 -7 5 -4 10 3 6 11
10 16 10 6 0 7 -4 4 -10z m1783 -1 c26 -7 51 -15 55 -19 5 -4 -18 -2 -50 5
-106 24 -101 23 -75 24 13 0 44 -4 70 -10z m-2575 -6 c-7 -2 -19 -2 -25 0 -7
3 -2 5 12 5 14 0 19 -2 13 -5z m288 -8 c34 -16 34 -16 4 -10 -16 4 -34 11 -39
16 -14 13 -3 11 35 -6z m4066 9 c-3 -3 -12 -4 -19 -1 -8 3 -5 6 6 6 11 1 17
-2 13 -5z m3156 -1 c-7 -2 -19 -2 -25 0 -7 3 -2 5 12 5 14 0 19 -2 13 -5z
m-3308 -13 c-3 -5 -14 -10 -23 -9 -14 0 -13 2 3 9 27 11 27 11 20 0z m1750
-25 c-66 -57 -265 -213 -301 -236 -19 -11 -34 -24 -34 -29 0 -5 -10 -12 -22
-16 -27 -8 -80 -44 -91 -61 -4 -7 -20 -13 -35 -13 -27 1 -26 1 8 20 19 10 44
27 56 38 11 11 35 27 51 36 17 8 37 21 45 28 7 8 38 31 68 52 30 21 62 45 70
52 8 8 58 48 110 89 97 76 147 104 75 40z m-5918 19 c-3 -3 -12 -4 -19 -1 -8
3 -5 6 6 6 11 1 17 -2 13 -5z m138 -4 c-3 -5 -12 -10 -20 -10 -8 0 -17 5 -20
10 -4 6 5 10 20 10 15 0 24 -4 20 -10z m804 -7 c3 -2 -20 -2 -51 -1 -31 2 -54
7 -51 11 4 7 93 -1 102 -10z m898 11 c-3 -3 -12 -4 -19 -1 -8 3 -5 6 6 6 11 1
17 -2 13 -5z m918 -9 c54 -12 137 -37 133 -40 -5 -6 -188 42 -196 50 -4 4 2 5
13 2 11 -3 34 -8 50 -12z m1480 5 c-11 -5 -29 -8 -40 -8 -16 0 -15 2 5 8 34
11 60 11 35 0z m1655 6 c0 -2 -37 -32 -82 -67 -46 -35 -87 -67 -93 -71 -66
-52 -138 -98 -152 -98 -13 0 41 41 126 95 9 6 18 12 21 15 3 3 20 16 38 29 18
13 31 26 28 28 -6 7 -104 -53 -129 -79 -19 -19 -53 -25 -42 -8 3 6 10 10 15
10 4 0 32 16 61 36 53 36 54 37 19 31 -19 -4 -64 -9 -100 -12 -36 -3 -76 -7
-90 -10 -14 -2 -61 -7 -105 -10 -44 -4 -111 -10 -150 -15 -38 -5 -88 -9 -110
-8 -49 1 -52 1 250 34 127 13 248 27 270 30 22 3 60 7 85 9 25 2 48 4 51 4 3
1 23 15 44 31 37 29 45 34 45 26z m-5850 -22 c0 -2 -9 -4 -21 -4 -11 0 -18 4
-14 10 5 8 35 3 35 -6z m530 7 c21 -7 18 -8 -22 -12 -36 -3 -44 -1 -36 8 11
14 21 15 58 4z m3887 3 c-3 -3 -12 -4 -19 -1 -8 3 -5 6 6 6 11 1 17 -2 13 -5z
m-4492 -14 c3 -6 -4 -10 -17 -10 -18 0 -20 2 -8 10 19 12 18 12 25 0z m1015 6
c0 -2 -7 -7 -16 -10 -8 -3 -12 -2 -9 4 6 10 25 14 25 6z m875 -11 l30 -14 -30
6 c-16 3 -37 9 -45 14 -27 15 11 10 45 -6z m2220 5 c-3 -5 -14 -10 -23 -10
-15 0 -15 2 -2 10 20 13 33 13 25 0z m215 6 c0 -2 -11 -6 -25 -8 -13 -3 -22
-1 -19 3 5 9 44 13 44 5z m1530 -1 c0 -2 -10 -9 -22 -15 -22 -11 -22 -10 -4 4
21 17 26 19 26 11z m-5452 -16 c-12 -7 -24 -7 -35 0 -15 9 -12 10 17 10 29 0
32 -1 18 -10z m1600 -10 c12 -5 22 -10 22 -13 0 -5 -91 22 -99 30 -7 6 42 -4
77 -17z m89 15 c-3 -3 -12 -4 -19 -1 -8 3 -5 6 6 6 11 1 17 -2 13 -5z m2480 0
c-3 -3 -12 -4 -19 -1 -8 3 -5 6 6 6 11 1 17 -2 13 -5z m230 0 c-3 -3 -12 -4
-19 -1 -8 3 -5 6 6 6 11 1 17 -2 13 -5z m1003 2 c0 -2 -7 -7 -16 -10 -8 -3
-12 -2 -9 4 6 10 25 14 25 6z m-5690 -10 c0 -3 -4 -8 -10 -11 -5 -3 -10 -1
-10 4 0 6 5 11 10 11 6 0 10 -2 10 -4z m145 -6 c3 -5 -3 -10 -14 -10 -12 0
-21 5 -21 10 0 6 6 10 14 10 8 0 18 -4 21 -10z m422 4 c-3 -3 -12 -4 -19 -1
-8 3 -5 6 6 6 11 1 17 -2 13 -5z m1510 0 c-3 -3 -12 -4 -19 -1 -8 3 -5 6 6 6
11 1 17 -2 13 -5z m1870 0 c-3 -3 -12 -4 -19 -1 -8 3 -5 6 6 6 11 1 17 -2 13
-5z m86 -1 c-7 -2 -19 -2 -25 0 -7 3 -2 5 12 5 14 0 19 -2 13 -5z m230 0 c-7
-2 -21 -2 -30 0 -10 3 -4 5 12 5 17 0 24 -2 18 -5z m-4213 -19 c0 -2 -12 -4
-26 -4 -14 0 -23 4 -20 9 6 8 46 4 46 -5z m4033 9 c-7 -2 -19 -2 -25 0 -7 3
-2 5 12 5 14 0 19 -2 13 -5z m-2068 -18 c17 -7 23 -14 15 -14 -8 0 -28 6 -45
14 -16 7 -23 14 -15 14 8 0 29 -6 45 -14z m892 9 c-3 -3 -12 -4 -19 -1 -8 3
-5 6 6 6 11 1 17 -2 13 -5z m968 -4 c-28 -12 -37 -12 -30 0 3 6 16 10 28 9 21
0 21 -1 2 -9z m458 3 c-7 -2 -21 -2 -30 0 -10 3 -4 5 12 5 17 0 24 -2 18 -5z
m-4370 -14 c-8 -8 -16 -8 -30 0 -16 9 -14 10 12 11 21 0 26 -3 18 -11z m727 1
c20 -6 17 -7 -17 -7 -23 1 -39 5 -37 9 6 9 20 9 54 -2z m1448 -11 c12 -5 22
-11 22 -13 0 -6 -90 20 -98 29 -8 7 39 -3 76 -16z m1777 11 c-11 -5 -27 -9
-35 -9 -9 0 -8 4 5 9 11 5 27 9 35 9 9 0 8 -4 -5 -9z m108 3 c-7 -2 -19 -2
-25 0 -7 3 -2 5 12 5 14 0 19 -2 13 -5z m152 -2 c20 -4 26 -9 18 -14 -7 -5
-18 -5 -25 -1 -6 4 -25 11 -42 15 -26 6 -27 7 -6 7 14 0 39 -3 55 -7z m3128 2
c-7 -2 -21 -2 -30 0 -10 3 -4 5 12 5 17 0 24 -2 18 -5z m-7218 -13 c-3 -5 -10
-10 -16 -10 -5 0 -9 5 -9 10 0 6 7 10 16 10 8 0 12 -4 9 -10z m170 -13 c7 -7
4 -8 -8 -3 -10 3 -25 6 -33 6 -8 0 -14 5 -14 11 0 12 40 2 55 -14z m180 13
l20 -9 -20 0 c-11 0 -27 4 -35 9 -13 9 -13 10 0 9 8 0 24 -4 35 -9z m798 3
c-13 -2 -35 -2 -50 0 -16 2 -5 4 22 4 28 0 40 -2 28 -4z m1017 -20 l35 -13
-35 6 c-19 4 -48 12 -65 20 l-30 13 30 -6 c17 -3 46 -12 65 -20z m1715 17
c-11 -5 -29 -8 -40 -8 -16 0 -15 2 5 8 34 11 60 11 35 0z m108 3 c-7 -2 -19
-2 -25 0 -7 3 -2 5 12 5 14 0 19 -2 13 -5z m345 0 c-10 -2 -26 -2 -35 0 -10 3
-2 5 17 5 19 0 27 -2 18 -5z m235 0 c-7 -2 -19 -2 -25 0 -7 3 -2 5 12 5 14 0
19 -2 13 -5z m350 0 c-7 -2 -19 -2 -25 0 -7 3 -2 5 12 5 14 0 19 -2 13 -5z
m-4523 -12 c0 -5 -7 -12 -16 -15 -14 -5 -15 -4 -4 9 14 17 20 19 20 6z m823 2
c-7 -2 -21 -2 -30 0 -10 3 -4 5 12 5 17 0 24 -2 18 -5z m1848 -18 c34 -11 37
-14 13 -10 -18 2 -47 11 -65 19 -38 17 -15 13 52 -9z m664 15 c15 -5 9 -7 -21
-6 -23 0 -40 4 -37 9 5 9 32 8 58 -3z m1133 3 c-10 -2 -26 -2 -35 0 -10 3 -2
5 17 5 19 0 27 -2 18 -5z m-5018 -7 c0 -11 -19 -15 -25 -6 -3 5 1 10 9 10 9 0
16 -2 16 -4z m200 -5 c0 -5 -9 -7 -20 -4 -11 3 -20 7 -20 9 0 2 9 4 20 4 11 0
20 -4 20 -9z m637 3 c-3 -3 -12 -4 -19 -1 -8 3 -5 6 6 6 11 1 17 -2 13 -5z
m1608 -15 l20 -8 -20 0 c-11 0 -36 7 -55 15 l-35 14 35 -6 c19 -4 44 -10 55
-15z m1622 15 c-3 -3 -12 -4 -19 -1 -8 3 -5 6 6 6 11 1 17 -2 13 -5z m126 -1
c-7 -2 -19 -2 -25 0 -7 3 -2 5 12 5 14 0 19 -2 13 -5z m145 0 c-10 -2 -26 -2
-35 0 -10 3 -2 5 17 5 19 0 27 -2 18 -5z m255 0 c-13 -2 -33 -2 -45 0 -13 2
-3 4 22 4 25 0 35 -2 23 -4z m344 1 c-3 -3 -12 -4 -19 -1 -8 3 -5 6 6 6 11 1
17 -2 13 -5z m688 -14 c-16 -11 -34 -20 -40 -20 -12 0 46 38 60 39 6 1 -3 -8
-20 -19z m-5511 0 c-7 -7 -19 -7 -35 -1 -23 9 -22 10 11 10 23 1 31 -2 24 -9z
m3823 4 c-3 -3 -12 -4 -19 -1 -8 3 -5 6 6 6 11 1 17 -2 13 -5z m946 -1 c3 -5
-36 -9 -87 -9 -72 -1 -81 0 -41 6 72 10 123 11 128 3z m230 0 c-7 -2 -21 -2
-30 0 -10 3 -4 5 12 5 17 0 24 -2 18 -5z m-5078 -13 c-3 -5 -12 -7 -20 -3 -21
7 -19 13 6 13 11 0 18 -4 14 -10z m205 0 c0 -5 -4 -10 -10 -10 -5 0 -10 5 -10
10 0 6 5 10 10 10 6 0 10 -4 10 -10z m2355 -11 c14 -7 7 -7 -20 -3 -22 3 -47
10 -55 15 -18 12 44 1 75 -12z m1182 15 c-3 -3 -12 -4 -19 -1 -8 3 -5 6 6 6
11 1 17 -2 13 -5z m200 0 c-3 -3 -12 -4 -19 -1 -8 3 -5 6 6 6 11 1 17 -2 13
-5z m461 -1 c-10 -2 -28 -2 -40 0 -13 2 -5 4 17 4 22 1 32 -1 23 -4z m-4743
-13 c-3 -5 -12 -10 -18 -10 -7 0 -6 4 3 10 19 12 23 12 15 0z m450 -8 c-3 -3
-11 0 -18 7 -9 10 -8 11 6 5 10 -3 15 -9 12 -12z m525 3 l35 -14 -52 2 c-39 2
-49 5 -41 15 12 14 13 14 58 -3z m2633 8 c-7 -2 -19 -2 -25 0 -7 3 -2 5 12 5
14 0 19 -2 13 -5z m477 -13 c75 -22 61 -27 -17 -6 -31 8 -55 10 -59 5 -3 -5
-13 -9 -22 -9 -12 0 -10 4 8 14 14 8 25 14 25 15 0 0 29 -8 65 -19z m247 14
c-3 -3 -12 -4 -19 -1 -8 3 -5 6 6 6 11 1 17 -2 13 -5z m146 -1 c-7 -2 -21 -2
-30 0 -10 3 -4 5 12 5 17 0 24 -2 18 -5z m175 0 c-10 -2 -26 -2 -35 0 -10 3
-2 5 17 5 19 0 27 -2 18 -5z m345 0 c-7 -2 -21 -2 -30 0 -10 3 -4 5 12 5 17 0
24 -2 18 -5z m-4613 -11 c0 -5 10 -14 23 -20 22 -11 22 -11 1 -11 -12 -1 -32
8 -45 19 l-24 19 23 1 c12 0 22 -4 22 -8z m928 1 c-10 -2 -28 -2 -40 0 -13 2
-5 4 17 4 22 1 32 -1 23 -4z m1179 1 c-3 -3 -12 -4 -19 -1 -8 3 -5 6 6 6 11 1
17 -2 13 -5z m543 -15 c22 -13 1 -10 -55 6 l-50 15 45 -6 c25 -4 52 -10 60
-15z m1840 11 c-14 -4 -56 -8 -95 -7 -65 0 -67 1 -20 6 28 3 70 7 95 7 35 2
40 0 20 -6z m477 3 c-20 -2 -52 -2 -70 0 -17 2 0 4 38 4 39 0 53 -2 32 -4z
m-5025 -15 c12 -7 31 -21 42 -31 11 -10 31 -20 43 -23 13 -4 21 -9 19 -13 -3
-4 15 -16 40 -27 24 -10 44 -22 44 -26 0 -4 23 -19 50 -33 28 -14 50 -29 50
-34 0 -5 11 -12 25 -15 14 -4 23 -11 20 -16 -3 -6 0 -10 7 -10 7 0 25 -6 40
-14 20 -10 29 -11 39 -2 9 8 10 8 4 -3 -5 -9 0 -20 16 -32 13 -10 19 -19 12
-19 -6 0 -18 6 -25 13 -7 8 -19 12 -27 9 -8 -3 -11 0 -7 6 3 5 -6 13 -21 17
-15 3 -48 22 -74 41 -26 19 -52 34 -60 34 -7 0 -9 3 -6 7 4 3 -16 17 -43 30
-28 13 -50 28 -50 33 0 6 -5 10 -10 10 -6 0 -39 18 -72 40 -34 22 -66 40 -71
40 -4 0 -6 4 -2 9 3 5 -3 12 -12 14 -10 3 -12 5 -5 6 7 0 22 -5 34 -11z m167
-8 c-15 -10 -41 -1 -34 10 3 5 14 6 26 3 15 -4 17 -8 8 -13z m137 2 c-10 -10
-18 -10 -42 3 l-29 15 42 -3 c34 -2 40 -4 29 -15z m148 8 c-7 -7 -19 -7 -35
-1 -23 9 -22 10 11 10 23 1 31 -2 24 -9z m1813 4 c-3 -3 -12 -4 -19 -1 -8 3
-5 6 6 6 11 1 17 -2 13 -5z m567 -14 c23 -4 73 -11 111 -15 97 -8 198 -26 212
-37 21 -17 74 -27 96 -18 16 6 18 9 5 9 -9 1 -19 5 -22 10 -3 5 27 1 67 -9 39
-10 97 -20 127 -23 53 -5 54 -4 18 7 -20 6 -40 14 -44 19 -10 10 50 9 62 -1 5
-5 29 -14 54 -21 25 -7 59 -19 75 -26 17 -7 62 -18 100 -24 178 -29 177 -29
95 -26 -93 4 -145 12 -235 36 -39 11 -103 19 -144 19 -82 0 -201 -19 -201 -32
0 -14 -44 -8 -65 8 -19 15 -18 15 15 10 19 -3 51 -2 70 2 34 8 33 9 -60 39
-52 18 -135 37 -185 42 -164 19 -246 34 -233 43 7 4 19 5 27 3 8 -3 33 -10 55
-15z m1209 13 c-7 -2 -21 -2 -30 0 -10 3 -4 5 12 5 17 0 24 -2 18 -5z m180 0
c-7 -2 -21 -2 -30 0 -10 3 -4 5 12 5 17 0 24 -2 18 -5z m680 0 c-7 -2 -19 -2
-25 0 -7 3 -2 5 12 5 14 0 19 -2 13 -5z m656 4 c-2 -2 -18 -11 -36 -19 -24
-12 -30 -13 -26 -2 5 12 23 20 52 23 8 0 12 -1 10 -2z m-4839 -17 c0 -5 -8
-10 -17 -10 -15 0 -16 2 -3 10 19 12 20 12 20 0z m1085 0 c40 -6 43 -7 15 -8
-19 0 -57 3 -85 8 -40 6 -43 7 -15 8 19 0 58 -3 85 -8z m2318 3 c-7 -2 -21 -2
-30 0 -10 3 -4 5 12 5 17 0 24 -2 18 -5z m214 1 c-3 -3 -12 -4 -19 -1 -8 3 -5
6 6 6 11 1 17 -2 13 -5z m481 -1 c-10 -2 -28 -2 -40 0 -13 2 -5 4 17 4 22 1
32 -1 23 -4z m585 -4 c-6 -6 -38 -13 -70 -14 -43 -3 -53 -1 -40 7 10 5 28 8
40 5 12 -2 33 -1 47 3 35 11 35 11 23 -1z m67 1 c-8 -5 -22 -10 -30 -10 -13 0
-13 1 0 10 8 5 22 10 30 10 13 0 13 -1 0 -10z m-1725 -49 c167 -40 169 -40
164 -46 -3 -2 -25 1 -49 6 -25 6 -70 15 -100 20 -30 6 -75 14 -100 18 -25 5
-65 11 -90 15 l-45 6 55 -20 c68 -23 34 -26 -41 -3 l-54 16 55 17 c30 9 57 14
60 11 3 -4 68 -21 145 -40z m928 42 c-18 -2 -48 -2 -65 0 -18 2 -4 4 32 4 36
0 50 -2 33 -4z m-4453 -13 c13 -8 13 -10 -2 -10 -9 0 -20 5 -23 10 -8 13 5 13
25 0z m2377 4 c-3 -3 -12 -4 -19 -1 -8 3 -5 6 6 6 11 1 17 -2 13 -5z m1390 0
c-3 -3 -12 -4 -19 -1 -8 3 -5 6 6 6 11 1 17 -2 13 -5z m216 -1 c-13 -2 -33 -2
-45 0 -13 2 -3 4 22 4 25 0 35 -2 23 -4z m276 -9 c9 -8 -45 -2 -64 6 -14 7 -8
8 20 3 22 -3 42 -7 44 -9z m676 6 c-3 -5 -18 -10 -33 -9 l-27 1 25 8 c35 11
42 11 35 0z m88 3 c-7 -2 -19 -2 -25 0 -7 3 -2 5 12 5 14 0 19 -2 13 -5z m302
-8 c-11 -8 -25 -18 -31 -23 -13 -12 -51 -32 -58 -32 -12 0 -5 20 7 21 6 0 28
11 47 24 37 25 69 34 35 10z m-5409 -4 c-3 -5 9 -12 27 -16 21 -5 26 -9 15
-12 -16 -4 -78 22 -78 32 0 3 9 5 21 5 11 0 18 -4 15 -9z m413 6 c-2 -1 -12
-9 -22 -16 -15 -12 -17 -12 -11 3 3 9 13 16 22 16 8 0 13 -1 11 -3z m2168 -3
c-3 -3 -12 -4 -19 -1 -8 3 -5 6 6 6 11 1 17 -2 13 -5z m2330 0 c-3 -3 -12 -4
-19 -1 -8 3 -5 6 6 6 11 1 17 -2 13 -5z m150 0 c-3 -3 -12 -4 -19 -1 -8 3 -5
6 6 6 11 1 17 -2 13 -5z m223 2 c0 -2 -7 -6 -15 -10 -8 -3 -15 -1 -15 4 0 6 7
10 15 10 8 0 15 -2 15 -4z m46 -11 c-20 -15 -36 -19 -36 -10 0 5 38 23 50 24
3 0 -4 -6 -14 -14z m-5190 -11 c18 -15 18 -15 -6 -10 -14 3 -29 6 -33 6 -5 0
-5 5 -2 10 9 14 18 13 41 -6z m134 0 l25 -15 -25 5 c-14 3 -31 6 -38 6 -7 0
-10 5 -7 10 8 13 15 12 45 -6z m1987 10 c-3 -3 -12 -4 -19 -1 -8 3 -5 6 6 6
11 1 17 -2 13 -5z m1606 -1 c-7 -2 -21 -2 -30 0 -10 3 -4 5 12 5 17 0 24 -2
18 -5z m290 0 c-13 -2 -33 -2 -45 0 -13 2 -3 4 22 4 25 0 35 -2 23 -4z m584 1
c-3 -3 -12 -4 -19 -1 -8 3 -5 6 6 6 11 1 17 -2 13 -5z m111 -1 c-10 -2 -26 -2
-35 0 -10 3 -2 5 17 5 19 0 27 -2 18 -5z m-4380 -15 c9 -9 15 -9 24 0 7 7 16
12 21 12 5 0 1 -7 -7 -16 -15 -14 -20 -14 -59 -1 -34 13 -37 16 -16 16 14 1
30 -4 37 -11z m250 5 c-10 -2 -26 -2 -35 0 -10 3 -2 5 17 5 19 0 27 -2 18 -5z
m450 0 c-16 -2 -40 -2 -55 0 -16 2 -3 4 27 4 30 0 43 -2 28 -4z m1279 1 c-3
-3 -12 -4 -19 -1 -8 3 -5 6 6 6 11 1 17 -2 13 -5z m1516 -1 c-13 -2 -33 -2
-45 0 -13 2 -3 4 22 4 25 0 35 -2 23 -4z m695 0 c-16 -2 -40 -2 -55 0 -16 2
-3 4 27 4 30 0 43 -2 28 -4z m439 1 c-3 -3 -12 -4 -19 -1 -8 3 -5 6 6 6 11 1
17 -2 13 -5z m-2978 -20 c8 -7 -114 -3 -159 6 -30 5 -12 6 55 3 55 -3 102 -7
104 -9z m538 10 c-3 -3 -12 -4 -19 -1 -8 3 -5 6 6 6 11 1 17 -2 13 -5z m1831
-1 c-32 -2 -86 -2 -120 0 -35 2 -9 3 57 3 66 0 94 -1 63 -3z m409 1 c-3 -3
-12 -4 -19 -1 -8 3 -5 6 6 6 11 1 17 -2 13 -5z m250 0 c-3 -3 -12 -4 -19 -1
-8 3 -5 6 6 6 11 1 17 -2 13 -5z m-2926 -25 c70 -30 56 -33 -21 -4 -36 13 -57
24 -47 24 10 1 41 -9 68 -20z m89 -5 c31 -10 47 -19 38 -22 -10 -2 -41 8 -70
22 -56 27 -55 27 32 0z m1775 15 c13 -6 4 -7 -30 -3 -27 4 -52 8 -54 10 -9 8
65 2 84 -7z m628 4 c-7 -2 -19 -2 -25 0 -7 3 -2 5 12 5 14 0 19 -2 13 -5z
m244 1 c-3 -3 -12 -4 -19 -1 -8 3 -5 6 6 6 11 1 17 -2 13 -5z m248 -4 c-3 -5
-18 -10 -33 -10 -21 0 -24 2 -12 10 20 13 53 13 45 0z m60 -4 c-16 -7 -34 -11
-39 -8 -12 7 21 20 49 21 15 0 12 -3 -10 -13z m-5181 -4 c2 -4 -4 -9 -15 -9
-10 -1 -19 2 -19 8 0 11 27 12 34 1z m106 -2 c8 -5 11 -10 5 -10 -5 0 -17 5
-25 10 -8 5 -10 10 -5 10 6 0 17 -5 25 -10z m150 0 c0 -5 -4 -10 -10 -10 -5 0
-10 5 -10 10 0 6 5 10 10 10 6 0 10 -4 10 -10z m2097 4 c-3 -3 -12 -4 -19 -1
-8 3 -5 6 6 6 11 1 17 -2 13 -5z m86 -1 c-7 -2 -19 -2 -25 0 -7 3 -2 5 12 5
14 0 19 -2 13 -5z m1360 0 c-7 -2 -19 -2 -25 0 -7 3 -2 5 12 5 14 0 19 -2 13
-5z m1137 -3 c-8 -5 -26 -9 -40 -9 -23 0 -23 1 -5 9 11 5 29 9 40 9 17 1 17
-1 5 -9z m90 3 c-8 -2 -25 -9 -37 -15 -13 -6 -26 -8 -29 -5 -8 8 34 26 61 26
13 -1 15 -2 5 -6z m-734 -21 c-21 -2 -42 0 -47 5 -4 4 13 6 39 3 l47 -5 -39
-3z m187 11 c-7 -2 -19 -2 -25 0 -7 3 -2 5 12 5 14 0 19 -2 13 -5z m197 -4
c-25 -4 -56 -7 -70 -7 -38 1 37 15 80 15 32 0 31 0 -10 -8z m125 1 c-16 -4
-39 -8 -50 -8 -16 0 -15 2 5 8 14 4 36 8 50 8 22 0 22 -1 -5 -8z m415 1 c0 -5
-8 -11 -17 -15 -10 -3 -25 -9 -33 -12 -8 -3 -1 4 15 15 34 24 35 24 35 12z
m66 -6 c-8 -8 -23 -15 -33 -15 -14 1 -13 4 7 15 33 19 45 19 26 0z m-2901 -23
l20 -14 -20 7 c-11 4 -35 9 -53 12 -18 3 -35 10 -38 15 -9 14 68 -2 91 -20z
m488 21 c-7 -2 -19 -2 -25 0 -7 3 -2 5 12 5 14 0 19 -2 13 -5z m624 1 c-3 -3
-12 -4 -19 -1 -8 3 -5 6 6 6 11 1 17 -2 13 -5z m276 -1 c-7 -2 -21 -2 -30 0
-10 3 -4 5 12 5 17 0 24 -2 18 -5z m620 0 c-7 -2 -19 -2 -25 0 -7 3 -2 5 12 5
14 0 19 -2 13 -5z m747 3 c0 -2 -7 -7 -16 -10 -8 -3 -12 -2 -9 4 6 10 25 14
25 6z m-5057 -19 c-3 -5 3 -15 13 -22 28 -21 14 -18 -42 9 l-49 25 41 -2 c23
-1 40 -6 37 -10z m115 1 c6 -1 12 -5 12 -9 0 -5 12 -15 28 -23 15 -8 22 -15
16 -16 -5 0 -19 6 -29 14 -11 8 -26 11 -35 8 -8 -3 -11 -1 -7 4 4 4 -9 14 -30
21 l-38 12 35 -4 c19 -3 41 -6 48 -7z m149 -9 c-8 -5 -22 -6 -31 -3 -27 11
-17 21 15 16 24 -4 28 -7 16 -13z m203 11 c24 -8 24 -8 -5 -9 -16 0 -37 4 -45
9 -12 8 -11 10 5 9 11 -1 31 -5 45 -9z m315 0 c18 -8 18 -9 -5 -8 -14 0 -36 4
-50 8 -24 8 -24 8 5 8 17 0 39 -3 50 -8z m549 2 c2 -4 -12 -6 -32 -4 -62 6
-69 10 -20 11 26 0 49 -3 52 -7z m1051 -7 l30 -15 -40 6 c-22 3 -47 10 -55 15
-26 15 32 10 65 -6z m175 -15 c41 -5 93 -12 114 -16 27 -5 37 -4 33 4 -5 6 12
5 45 -4 29 -7 54 -11 56 -9 5 5 -43 25 -60 25 -6 0 -9 2 -6 5 3 3 29 0 57 -7
45 -10 50 -14 36 -24 -12 -9 -13 -13 -3 -18 7 -3 0 -4 -16 0 -16 3 -42 0 -58
-7 -23 -9 -35 -9 -56 1 -27 12 -127 39 -147 39 -5 0 1 -6 15 -14 36 -21 23
-18 -61 11 -74 26 -123 54 -58 33 19 -7 68 -15 109 -19z m-23 24 c-3 -3 -12
-4 -19 -1 -8 3 -5 6 6 6 11 1 17 -2 13 -5z m106 -1 c-7 -2 -21 -2 -30 0 -10 3
-4 5 12 5 17 0 24 -2 18 -5z m70 0 c-7 -2 -19 -2 -25 0 -7 3 -2 5 12 5 14 0
19 -2 13 -5z m2250 0 c-7 -2 -19 -2 -25 0 -7 3 -2 5 12 5 14 0 19 -2 13 -5z
m-948 -17 c11 -2 -21 -4 -72 -5 -50 0 -94 2 -97 7 -4 7 122 5 169 -2z m738 7
c-7 -2 -19 -2 -25 0 -7 3 -2 5 12 5 14 0 19 -2 13 -5z m258 -7 c-7 -8 -26 -18
-42 -21 -16 -4 -31 -11 -34 -16 -4 -5 -12 -9 -18 -9 -19 1 36 40 56 40 9 0 17
5 17 10 0 6 7 10 16 10 13 0 14 -3 5 -14z m-2854 -2 c-3 -3 -12 -4 -19 -1 -8
3 -5 6 6 6 11 1 17 -2 13 -5z m80 0 c-3 -3 -12 -4 -19 -1 -8 3 -5 6 6 6 11 1
17 -2 13 -5z m1286 -1 c-7 -2 -19 -2 -25 0 -7 3 -2 5 12 5 14 0 19 -2 13 -5z
m736 -9 c2 -2 -34 -4 -82 -4 -47 0 -88 4 -91 9 -5 8 164 3 173 -5z m78 10 c-3
-3 -12 -4 -19 -1 -8 3 -5 6 6 6 11 1 17 -2 13 -5z m483 -4 c0 -5 -4 -10 -9
-10 -5 0 -24 -2 -42 -5 l-34 -5 35 14 c43 18 50 19 50 6z m340 0 c0 -5 -5 -10
-11 -10 -6 0 -35 -16 -65 -36 -29 -19 -61 -34 -71 -32 -11 2 1 12 33 28 27 14
54 30 59 36 18 21 55 30 55 14z m-640 -10 c-14 -4 -47 -8 -75 -7 l-50 0 50 7
c28 4 61 7 75 7 l25 1 -25 -8z m160 0 c-8 -5 -31 -9 -50 -9 l-35 2 35 7 c19 4
42 8 50 9 13 1 13 0 0 -9z m220 0 c-8 -5 -26 -9 -40 -9 -23 0 -23 1 -5 9 11 5
29 9 40 9 17 1 17 -1 5 -9z m168 0 c-14 -4 -31 -11 -37 -14 -7 -4 -8 -1 -5 8
4 10 18 16 38 15 l31 -1 -27 -8z m-3523 -10 l20 -9 -20 0 c-11 0 -38 4 -60 8
l-40 9 40 0 c22 0 49 -3 60 -8z m902 4 c-3 -3 -12 -4 -19 -1 -8 3 -5 6 6 6 11
1 17 -2 13 -5z m-140 -10 c-3 -3 -12 -4 -19 -1 -8 3 -5 6 6 6 11 1 17 -2 13
-5z m-2207 -24 c12 -11 31 -22 41 -25 11 -4 16 -11 13 -17 -4 -7 -9 -7 -13 1
-4 5 -31 21 -61 35 -44 20 -50 25 -29 25 14 1 36 -8 49 -19z m130 5 c25 -14
25 -14 -12 -12 -37 2 -45 7 -31 20 9 10 14 8 43 -8z m400 5 l25 -8 -25 -1
c-14 0 -32 4 -40 9 -13 9 -13 10 0 9 8 -1 26 -5 40 -9z m363 3 c-13 -2 -35 -2
-50 0 -16 2 -5 4 22 4 28 0 40 -2 28 -4z m2702 -4 c20 -5 9 -6 -30 -2 -33 3
-62 7 -64 9 -8 7 63 2 94 -7z m1028 4 c-7 -2 -19 -2 -25 0 -7 3 -2 5 12 5 14
0 19 -2 13 -5z m287 -3 c0 -5 -10 -10 -22 -10 -19 0 -20 2 -8 10 19 13 30 13
30 0z m-4595 -10 c7 -11 -9 -11 -45 0 -24 8 -24 8 7 9 17 1 35 -3 38 -9z
m1942 4 c-3 -3 -12 -4 -19 -1 -8 3 -5 6 6 6 11 1 17 -2 13 -5z m183 -4 c8 -5
11 -10 5 -10 -5 0 -17 5 -25 10 -8 5 -10 10 -5 10 6 0 17 -5 25 -10z m123 -7
c15 -3 27 -9 27 -14 0 -15 -28 -10 -62 12 -18 12 -24 18 -13 14 11 -3 32 -9
48 -12z m262 7 l20 -9 -20 0 c-11 0 -29 4 -40 9 l-20 9 20 0 c11 0 29 -4 40
-9z m1124 -6 c8 -8 -135 -3 -174 6 -26 5 -3 6 65 3 58 -3 107 -7 109 -9z m234
9 c-23 -2 -64 -2 -90 0 -26 2 -7 3 42 3 50 0 71 -1 48 -3z m254 1 c-3 -3 -12
-4 -19 -1 -8 3 -5 6 6 6 11 1 17 -2 13 -5z m245 -10 c-12 -8 -32 -13 -45 -11
-19 4 -18 4 6 6 15 0 27 6 27 11 0 6 8 10 17 10 14 0 13 -3 -5 -16z m-2485 0
c-3 -3 -12 -4 -19 -1 -8 3 -5 6 6 6 11 1 17 -2 13 -5z m177 -3 c4 -5 -3 -7
-14 -4 -23 6 -26 13 -6 13 8 0 17 -4 20 -9z m2014 2 c-10 -2 -26 -2 -35 0 -10
3 -2 5 17 5 19 0 27 -2 18 -5z m-2700 -10 c-16 -2 -40 -2 -55 0 -16 2 -3 4 27
4 30 0 43 -2 28 -4z m615 0 c-7 -2 -19 -2 -25 0 -7 3 -2 5 12 5 14 0 19 -2 13
-5z m697 -3 c20 -6 21 -8 5 -8 -11 0 -29 3 -40 8 -25 11 1 11 35 0z m1538 3
c-10 -2 -28 -2 -40 0 -13 2 -5 4 17 4 22 1 32 -1 23 -4z m227 -3 c-28 -12 -57
-12 -50 0 3 6 21 10 38 9 27 0 29 -2 12 -9z m56 -16 c-29 -14 -56 -23 -58 -20
-3 2 5 7 16 11 12 3 21 10 21 15 0 9 24 17 55 18 11 0 -4 -11 -34 -24z m-4621
1 c33 -19 21 -19 -21 0 -19 8 -27 14 -19 14 8 0 26 -6 40 -14z m2043 8 c-7 -2
-19 -2 -25 0 -7 3 -2 5 12 5 14 0 19 -2 13 -5z m282 -3 l20 -9 -20 0 c-11 0
-27 4 -35 9 -13 9 -13 10 0 9 8 0 24 -4 35 -9z m-637 -7 c-16 -2 -40 -2 -55 0
-16 2 -3 4 27 4 30 0 43 -2 28 -4z m573 -8 c19 -8 29 -14 23 -15 -7 0 -27 7
-45 15 -19 8 -29 14 -23 15 7 0 27 -7 45 -15z m1749 5 c-25 -4 -54 -4 -65 1
-13 5 3 8 45 7 63 0 63 -1 20 -8z m393 3 c-7 -2 -19 -2 -25 0 -7 3 -2 5 12 5
14 0 19 -2 13 -5z m-3460 -10 c-13 -2 -35 -2 -50 0 -16 2 -5 4 22 4 28 0 40
-2 28 -4z m2120 0 c-7 -2 -19 -2 -25 0 -7 3 -2 5 12 5 14 0 19 -2 13 -5z
m1142 -3 c-11 -5 -29 -9 -40 -9 -17 -1 -17 1 -5 9 8 5 26 9 40 9 23 0 23 -1 5
-9z m492 4 c-10 -10 -47 -31 -97 -54 -24 -12 -47 -24 -50 -28 -12 -16 -135
-70 -144 -64 -6 4 1 8 17 10 15 2 25 8 22 13 -4 5 3 9 14 9 11 0 23 5 27 11 3
6 27 20 52 30 26 11 49 23 52 27 8 11 84 50 99 51 8 1 11 -2 8 -5z m29 -39
c-38 -25 -76 -45 -84 -45 -9 0 -12 -3 -9 -7 4 -3 -10 -15 -31 -25 -49 -25 -95
-51 -127 -72 -14 -9 -36 -15 -48 -13 -17 3 -15 5 7 6 16 0 26 4 23 8 -4 4 5
13 20 20 71 35 112 60 106 66 -3 4 2 7 13 7 10 0 30 9 44 20 14 11 33 20 43
20 10 0 15 5 12 10 -3 6 1 10 9 10 9 0 16 3 16 8 0 9 39 29 60 31 8 0 -16 -20
-54 -44z m-4794 12 c3 -6 19 -16 35 -23 15 -7 21 -13 13 -13 -8 -1 -30 8 -48
19 -18 11 -39 20 -47 20 -7 0 -17 5 -21 11 -4 8 4 9 27 4 19 -4 37 -12 41 -18z
m608 13 c12 -8 11 -10 -5 -9 -11 1 -31 5 -45 9 -24 8 -24 8 5 9 17 0 37 -4 45
-9z m1298 3 c-16 -2 -40 -2 -55 0 -16 2 -3 4 27 4 30 0 43 -2 28 -4z m314 -11
c47 -18 80 -40 43 -28 -11 3 -48 7 -82 8 -40 2 -56 6 -46 11 8 5 23 7 34 4 10
-3 19 -1 19 3 0 5 -8 11 -17 13 -10 3 -13 5 -8 6 6 0 31 -7 57 -17z m80 -1
c24 -11 54 -24 68 -29 14 -6 18 -11 10 -11 -8 -1 -42 12 -75 28 -67 33 -69 41
-3 12z m1050 13 c21 -4 35 -10 33 -14 -3 -4 -24 -4 -47 2 -72 16 -61 24 14 12z
m238 -8 l35 4 -33 -9 c-35 -9 -109 -4 -117 9 -2 4 14 4 37 0 23 -5 58 -6 78
-4z m138 4 c17 0 32 -4 32 -9 0 -11 -63 -3 -95 11 -17 7 -16 8 5 3 14 -2 40
-5 58 -5z m192 -1 c11 -7 1 -8 -35 -3 -27 4 -52 8 -54 10 -10 9 76 3 89 -7z
m485 1 c-3 -5 -21 -9 -38 -9 l-32 1 30 8 c43 11 47 11 40 0z m125 -5 c-14 -8
-34 -14 -45 -14 -15 1 -13 4 10 14 40 19 67 18 35 0z m-4380 -5 c0 -6 -11 -8
-27 -4 -40 10 -41 14 -5 14 18 0 32 -5 32 -10z m188 3 c-10 -2 -26 -2 -35 0
-10 3 -2 5 17 5 19 0 27 -2 18 -5z m1685 0 c-13 -2 -35 -2 -50 0 -16 2 -5 4
22 4 28 0 40 -2 28 -4z m1425 0 c-10 -2 -26 -2 -35 0 -10 3 -2 5 17 5 19 0 27
-2 18 -5z m1192 -9 c0 -2 -15 -4 -32 -3 -27 0 -29 2 -13 8 18 8 45 4 45 -5z
m-2542 -1 c-10 -2 -26 -2 -35 0 -10 3 -2 5 17 5 19 0 27 -2 18 -5z m2075 0
c-7 -2 -19 -2 -25 0 -7 3 -2 5 12 5 14 0 19 -2 13 -5z m-2970 -10 c-13 -2 -35
-2 -50 0 -16 2 -5 4 22 4 28 0 40 -2 28 -4z m2915 0 c-10 -2 -28 -2 -40 0 -13
2 -5 4 17 4 22 1 32 -1 23 -4z m342 -3 c0 -5 -7 -10 -16 -10 -8 0 -12 5 -9 10
3 6 10 10 16 10 5 0 9 -4 9 -10z m-4260 -10 c8 -5 11 -10 5 -10 -5 0 -17 5
-25 10 -8 5 -10 10 -5 10 6 0 17 -5 25 -10z m2299 -16 c9 -9 -53 7 -63 17 -5
5 5 4 24 -1 18 -5 35 -12 39 -16z m1544 19 c-7 -2 -19 -2 -25 0 -7 3 -2 5 12
5 14 0 19 -2 13 -5z m237 -3 c11 -7 4 -10 -25 -9 -31 0 -36 2 -20 9 26 11 28
11 45 0z m290 6 c0 -4 -78 -42 -117 -57 -36 -13 -27 5 10 20 17 7 46 19 62 27
31 14 45 17 45 10z m-1951 -32 c9 -9 -53 7 -63 17 -5 5 5 4 24 -1 18 -5 35
-12 39 -16z m1359 19 c-10 -2 -26 -2 -35 0 -10 3 -2 5 17 5 19 0 27 -2 18 -5z
m-3185 -10 c-13 -2 -33 -2 -45 0 -13 2 -3 4 22 4 25 0 35 -2 23 -4z m1952 -15
c12 -11 -42 0 -65 14 -10 6 -3 7 20 2 19 -3 40 -10 45 -16z m1160 12 c-3 -5
-25 -10 -48 -9 -36 1 -38 2 -17 9 36 12 72 12 65 0z m485 0 c-20 -13 -53 -13
-45 0 3 6 18 10 33 10 21 0 24 -2 12 -10z m-4410 -10 c12 -8 12 -10 -5 -10
-11 0 -27 5 -35 10 -12 8 -12 10 5 10 11 0 27 -5 35 -10z m130 0 c12 -8 9 -10
-12 -10 -15 0 -30 5 -33 10 -8 13 25 13 45 0z m165 0 c18 -8 17 -9 -7 -9 -15
-1 -30 4 -33 9 -7 12 12 12 40 0z m230 0 c7 -11 -9 -11 -45 0 -24 8 -24 8 7 9
17 1 35 -3 38 -9z m848 3 c-13 -2 -33 -2 -45 0 -13 2 -3 4 22 4 25 0 35 -2 23
-4z m1516 -9 c10 -9 -35 -3 -49 6 -11 8 -7 9 15 4 17 -4 32 -8 34 -10z m901 6
c24 -8 24 -8 -5 -9 -16 0 -37 4 -45 9 -12 8 -11 10 5 9 11 -1 31 -5 45 -9z
m400 0 c11 -7 2 -9 -30 -9 -37 1 -41 2 -20 9 34 11 33 11 50 0z m-1165 -10
l20 -9 -20 0 c-11 0 -29 4 -40 9 l-20 9 20 0 c11 0 29 -4 40 -9z m634 -6 c2
-2 -18 -4 -45 -3 -36 0 -44 3 -29 9 18 7 63 3 74 -6z m48 10 c-3 -3 -12 -4
-19 -1 -8 3 -5 6 6 6 11 1 17 -2 13 -5z m-2187 -14 c-20 -13 -47 -13 -55 0 -4
6 9 10 32 10 28 0 34 -3 23 -10z m1614 2 c3 -5 -8 -6 -25 -4 -16 2 -29 6 -29
8 0 8 49 4 54 -4z m141 -2 l20 -9 -20 0 c-11 0 -29 4 -40 9 l-20 9 20 0 c11 0
29 -4 40 -9z m220 0 l20 -9 -20 0 c-11 0 -29 4 -40 9 l-20 9 20 0 c11 0 29 -4
40 -9z m52 4 c-3 -3 -12 -4 -19 -1 -8 3 -5 6 6 6 11 1 17 -2 13 -5z m-3493
-19 c15 -11 16 -15 5 -15 -8 0 -24 7 -35 15 -14 11 -15 14 -4 14 8 0 24 -6 34
-14z m136 0 c14 -8 19 -14 10 -14 -8 0 -26 6 -40 14 -14 8 -19 14 -10 14 8 0
26 -6 40 -14z m170 0 c14 -8 21 -14 15 -14 -5 0 -21 6 -35 14 -14 8 -20 14
-15 14 6 0 21 -6 35 -14z m230 5 c8 -5 11 -10 5 -10 -5 0 -17 5 -25 10 -8 5
-10 10 -5 10 6 0 17 -5 25 -10z m390 0 c22 -7 21 -8 -12 -9 -21 -1 -38 4 -38
9 0 11 14 11 50 0z m3105 0 c4 -6 -6 -7 -27 -3 -44 8 -48 13 -10 13 17 0 34
-4 37 -10z m213 3 c-10 -2 -26 -2 -35 0 -10 3 -2 5 17 5 19 0 27 -2 18 -5z
m-2658 -13 c-8 -5 -28 -10 -45 -10 -23 0 -27 3 -15 10 8 5 29 10 45 10 23 0
27 -3 15 -10z m2790 1 c0 -9 -33 -21 -59 -21 -20 0 -2 17 24 23 32 8 35 7 35
-2z m-450 -11 c0 -12 -27 -12 -55 0 -16 7 -13 9 18 9 20 1 37 -3 37 -9z
m-3312 -7 c-10 -2 -28 -2 -40 0 -13 2 -5 4 17 4 22 1 32 -1 23 -4z m1070 0
c-10 -2 -28 -2 -40 0 -13 2 -5 4 17 4 22 1 32 -1 23 -4z m112 -3 c-8 -5 -28
-9 -45 -9 l-30 1 30 8 c17 4 37 8 45 9 13 1 13 0 0 -9z m2360 0 c0 -13 -30
-13 -50 0 -11 7 -7 10 18 10 17 0 32 -4 32 -10z m-4090 -10 c12 -8 12 -10 -5
-9 -11 0 -29 4 -40 9 -18 8 -18 9 5 9 14 0 32 -4 40 -9z m140 0 c12 -8 12 -10
-5 -10 -11 0 -27 5 -35 10 -12 8 -12 10 5 10 11 0 27 -5 35 -10z m186 1 c-5
-8 -56 -3 -56 5 0 2 14 4 31 4 16 0 28 -4 25 -9z m679 -1 c16 -7 11 -9 -20 -9
-29 -1 -36 2 -25 9 17 11 19 11 45 0z m790 0 c-11 -5 -29 -9 -40 -9 -17 -1
-17 1 -5 9 8 5 26 9 40 9 23 0 23 -1 5 -9z m1920 0 c18 -8 18 -9 -5 -9 -14 0
-32 4 -40 9 -12 8 -12 10 5 9 11 0 29 -4 40 -9z m62 4 c-3 -3 -12 -4 -19 -1
-8 3 -5 6 6 6 11 1 17 -2 13 -5z m-132 -14 c8 -13 -5 -13 -25 0 -13 8 -13 10
2 10 9 0 20 -4 23 -10z m565 1 c-28 -16 -60 -22 -60 -12 0 10 22 18 55 20 16
0 17 -1 5 -8z m153 2 c-7 -2 -19 -2 -25 0 -7 3 -2 5 12 5 14 0 19 -2 13 -5z
m-4003 -13 c8 -5 11 -10 5 -10 -5 0 -17 5 -25 10 -8 5 -10 10 -5 10 6 0 17 -5
25 -10z m3245 0 c4 -7 -3 -8 -22 -4 -38 9 -42 14 -10 14 14 0 29 -5 32 -10z
m383 3 c-10 -2 -26 -2 -35 0 -10 3 -2 5 17 5 19 0 27 -2 18 -5z m-3928 -23
c14 -11 30 -20 37 -20 6 0 18 -6 25 -13 7 -7 38 -25 67 -40 30 -15 51 -27 45
-27 -5 0 20 -14 56 -30 59 -27 62 -29 33 -30 -18 0 -33 4 -33 8 0 4 -24 20
-52 36 -29 15 -81 43 -115 61 -34 18 -59 36 -56 39 4 3 0 6 -8 6 -9 0 -24 7
-35 15 -14 11 -15 14 -4 14 8 1 26 -8 40 -19z m140 5 c14 -8 21 -14 15 -14 -5
0 -21 6 -35 14 -14 8 -20 14 -15 14 6 0 21 -6 35 -14z m4110 0 c-14 -8 -34
-14 -45 -14 -18 -1 -17 1 5 13 14 8 34 14 45 15 17 0 17 -2 -5 -14z m-3612 -2
c-10 -2 -28 -2 -40 0 -13 2 -5 4 17 4 22 1 32 -1 23 -4z m440 0 c-10 -2 -28
-2 -40 0 -13 2 -5 4 17 4 22 1 32 -1 23 -4z m1397 -15 c6 -6 -1 -7 -20 -2 -16
3 -34 11 -40 16 -6 6 1 7 20 2 17 -3 35 -11 40 -16z m878 15 c-7 -2 -21 -2
-30 0 -10 3 -4 5 12 5 17 0 24 -2 18 -5z m472 -7 c-27 -7 -54 -10 -60 -7 -11
6 44 18 85 19 14 0 3 -5 -25 -12z m231 -1 c-19 -14 -56 -21 -56 -10 0 7 41 24
60 24 11 0 10 -3 -4 -14z m-1486 -5 c13 -9 13 -10 0 -9 -8 0 -24 4 -35 9 l-20
9 20 0 c11 0 27 -4 35 -9z m100 0 c13 -9 13 -10 0 -9 -8 0 -24 4 -35 9 l-20 9
20 0 c11 0 27 -4 35 -9z m105 0 c19 -8 19 -9 -2 -9 -12 -1 -25 4 -28 9 -7 12
2 12 30 0z m134 -6 c10 -9 -35 -3 -49 6 -11 8 -7 9 15 4 17 -4 32 -8 34 -10z
m111 6 l25 -8 -25 -1 c-14 0 -32 4 -40 9 -13 9 -13 10 0 9 8 -1 26 -5 40 -9z
m135 0 c4 -7 -3 -8 -22 -4 -38 9 -42 14 -10 14 14 0 29 -5 32 -10z m68 3 c-7
-2 -21 -2 -30 0 -10 3 -4 5 12 5 17 0 24 -2 18 -5z m-3008 -23 c-2 -4 -16 -5
-30 -3 -13 3 -23 9 -20 13 2 4 16 5 30 3 13 -3 23 -9 20 -13z m183 13 c-10 -2
-28 -2 -40 0 -13 2 -5 4 17 4 22 1 32 -1 23 -4z m792 -9 c0 -2 -15 -4 -32 -3
-27 0 -29 2 -13 8 18 8 45 4 45 -5z m2520 -4 c-14 -4 -36 -8 -50 -9 -20 -1
-22 1 -10 9 8 5 31 9 50 9 32 -1 33 -2 10 -9z m273 3 c-7 -2 -19 -2 -25 0 -7
3 -2 5 12 5 14 0 19 -2 13 -5z m195 0 c-9 -2 -34 -13 -55 -23 -21 -10 -42 -15
-48 -12 -5 4 -1 8 10 10 11 3 29 11 40 18 11 8 31 13 45 13 16 -1 19 -3 8 -6z
m128 -8 c-17 -9 -39 -14 -50 -12 -15 3 -13 5 7 6 16 0 26 5 22 11 -4 6 6 10
22 10 l28 0 -29 -15z m-3861 -5 c13 -6 15 -9 5 -9 -8 0 -22 4 -30 9 -18 12 -2
12 25 0z m335 0 c0 -13 -30 -13 -50 0 -11 7 -7 10 18 10 17 0 32 -4 32 -10z
m-520 -15 c14 -8 19 -14 10 -14 -8 0 -24 6 -34 14 -25 19 -9 19 24 0z m1018 8
c-10 -2 -26 -2 -35 0 -10 3 -2 5 17 5 19 0 27 -2 18 -5z m2652 -3 c-36 -11
-52 -11 -45 0 3 6 21 10 38 9 31 -1 31 -1 7 -9z m-2545 -10 c-3 -5 -21 -10
-38 -9 -31 1 -31 1 -7 9 36 11 52 11 45 0z m2165 0 c0 -12 -8 -12 -35 0 -18 8
-17 9 8 9 15 1 27 -3 27 -9z m-3026 -10 c-7 -7 -19 -7 -35 -1 -23 9 -22 10 11
10 23 1 31 -2 24 -9z m3331 0 c4 -6 -5 -10 -19 -10 -14 0 -26 5 -26 10 0 6 9
10 19 10 11 0 23 -4 26 -10z m388 3 c-7 -2 -19 -2 -25 0 -7 3 -2 5 12 5 14 0
19 -2 13 -5z m-3903 -19 c0 -2 -14 -4 -31 -4 -16 0 -28 4 -25 9 5 8 56 3 56
-5z m548 9 c-10 -2 -28 -2 -40 0 -13 2 -5 4 17 4 22 1 32 -1 23 -4z m2555 0
c-7 -2 -21 -2 -30 0 -10 3 -4 5 12 5 17 0 24 -2 18 -5z m607 -3 c-14 -4 -34
-8 -45 -8 l-20 -1 20 9 c11 5 31 8 45 8 l25 0 -25 -8z m-677 -7 c-7 -2 -21 -2
-30 0 -10 3 -4 5 12 5 17 0 24 -2 18 -5z m407 -3 c-34 -11 -60 -11 -35 0 11 5
29 8 40 8 16 0 15 -2 -5 -8z m415 3 c-11 -3 -22 -8 -25 -12 -5 -7 -66 -36
-140 -68 -19 -8 -43 -19 -52 -24 -23 -12 -38 -11 -38 1 0 6 7 10 15 10 15 0
24 3 82 34 17 9 38 16 46 16 9 0 17 3 19 8 5 12 71 41 93 40 l20 0 -20 -5z
m-925 -13 c13 -9 13 -10 0 -9 -8 0 -24 4 -35 9 l-20 9 20 0 c11 0 27 -4 35 -9z
m-2900 -10 c8 -5 11 -10 5 -10 -5 0 -17 5 -25 10 -8 5 -10 10 -5 10 6 0 17 -5
25 -10z m640 6 c0 -9 -39 -13 -51 -5 -10 6 -4 9 19 9 17 0 32 -2 32 -4z m2150
-6 c12 -8 12 -10 -5 -10 -11 0 -27 5 -35 10 -12 8 -12 10 5 10 11 0 27 -5 35
-10z m550 0 c0 -5 -6 -10 -14 -10 -8 0 -18 5 -21 10 -3 6 3 10 14 10 12 0 21
-4 21 -10z m270 0 c0 -5 -9 -10 -19 -10 -11 0 -23 5 -26 10 -4 6 5 10 19 10
14 0 26 -4 26 -10z m-3342 -7 c-10 -2 -26 -2 -35 0 -10 3 -2 5 17 5 19 0 27
-2 18 -5z m2303 -11 c-13 -2 -27 0 -32 5 -6 6 3 7 23 4 28 -4 29 -6 9 -9z
m114 8 c7 -12 -2 -12 -30 0 -19 8 -19 9 2 9 12 1 25 -3 28 -9z m-310 -10 l20
-9 -20 0 c-11 0 -27 4 -35 9 -13 9 -13 10 0 9 8 0 24 -4 35 -9z m105 0 c13 -9
13 -10 0 -9 -8 0 -24 4 -35 9 l-20 9 20 0 c11 0 27 -4 35 -9z m1070 0 c-20
-13 -43 -13 -35 0 3 6 16 10 28 10 18 0 19 -2 7 -10z m-3474 -7 c-3 -4 6 -12
21 -19 16 -7 21 -12 13 -12 -8 0 -33 8 -55 18 l-40 19 34 0 c19 1 31 -2 27 -6z
m241 1 c-3 -3 -12 -4 -19 -1 -8 3 -5 6 6 6 11 1 17 -2 13 -5z m401 -1 c-10 -2
-26 -2 -35 0 -10 3 -2 5 17 5 19 0 27 -2 18 -5z m1525 0 c-45 -2 -122 -2 -170
0 -48 1 -11 3 82 3 94 0 133 -2 88 -3z m1000 0 c-7 -2 -21 -2 -30 0 -10 3 -4
5 12 5 17 0 24 -2 18 -5z m-54 -7 c-2 -2 -22 -6 -44 -9 -28 -5 -34 -4 -20 3
19 8 73 14 64 6z m301 -6 c0 -5 -9 -10 -21 -10 -11 0 -17 5 -14 10 3 6 13 10
21 10 8 0 14 -4 14 -10z m-3112 -7 c-10 -2 -28 -2 -40 0 -13 2 -5 4 17 4 22 1
32 -1 23 -4z m2721 -7 c-2 -2 -24 -6 -49 -9 -30 -4 -38 -3 -25 3 19 8 83 14
74 6z m338 -2 c-3 -3 -12 -4 -19 -1 -8 3 -5 6 6 6 11 1 17 -2 13 -5z m-3487
-14 c13 -9 13 -10 0 -10 -8 0 -22 5 -30 10 -13 9 -13 10 0 10 8 0 22 -5 30
-10z m3450 0 c0 -5 -9 -10 -20 -10 -11 0 -20 5 -20 10 0 6 9 10 20 10 11 0 20
-4 20 -10z m-3226 -10 c-7 -7 -19 -7 -35 -1 -23 9 -22 10 11 10 23 1 31 -2 24
-9z m311 0 c-3 -5 -17 -10 -31 -10 -14 0 -22 4 -19 10 3 6 17 10 31 10 14 0
22 -4 19 -10z m2508 3 c-7 -2 -21 -2 -30 0 -10 3 -4 5 12 5 17 0 24 -2 18 -5z
m-93 -13 c12 -8 9 -10 -12 -10 -15 0 -30 5 -33 10 -8 13 25 13 45 0z m443 3
c-7 -2 -21 -2 -30 0 -10 3 -4 5 12 5 17 0 24 -2 18 -5z m-3323 -11 c0 -5 10
-14 23 -20 12 -6 16 -11 7 -11 -8 0 -33 9 -55 19 l-40 19 33 0 c17 1 32 -3 32
-7z m210 -5 c19 -8 67 -28 105 -46 91 -42 388 -153 489 -182 44 -13 74 -25 68
-27 -16 -5 -291 90 -459 159 -81 33 -159 63 -173 66 -14 3 -27 9 -30 12 -3 4
-16 12 -30 18 -34 16 -13 16 30 0z m2580 -3 c0 -2 -11 -4 -25 -4 -14 0 -25 4
-25 9 0 4 11 6 25 3 14 -2 25 -6 25 -8z m738 9 c-10 -2 -18 -9 -18 -14 0 -5
-8 -9 -18 -9 -10 0 -22 -4 -27 -9 -6 -5 -23 -11 -40 -13 -16 -3 -24 -3 -17 -1
6 3 12 9 12 14 0 5 11 9 25 9 14 0 25 4 25 9 0 9 29 18 60 18 9 1 9 -1 -2 -4z
m-2963 -23 c13 -6 15 -9 5 -9 -8 0 -22 4 -30 9 -18 12 -2 12 25 0z m2129 1 c3
-4 -6 -6 -19 -3 -14 2 -25 6 -25 8 0 8 39 4 44 -5z m549 2 c-7 -2 -21 -2 -30
0 -10 3 -4 5 12 5 17 0 24 -2 18 -5z m-2106 -9 c-3 -3 -12 -4 -19 -1 -8 3 -5
6 6 6 11 1 17 -2 13 -5z m1467 -3 c3 -4 -6 -6 -19 -3 -14 2 -25 6 -25 8 0 8
39 4 44 -5z m571 -1 c-11 -5 -31 -8 -45 -8 -23 0 -22 1 5 8 42 11 65 11 40 0z
m-1952 -7 c-7 -2 -21 -2 -30 0 -10 3 -4 5 12 5 17 0 24 -2 18 -5z m1275 0
c-10 -2 -26 -2 -35 0 -10 3 -2 5 17 5 19 0 27 -2 18 -5z m-2408 -12 c0 -12
371 -184 555 -256 364 -143 566 -185 892 -185 410 0 835 50 1203 140 151 38
305 82 345 100 11 5 35 12 53 15 17 4 32 11 32 16 0 5 9 9 20 9 11 0 20 -4 20
-10 0 -5 -7 -10 -16 -10 -9 0 -30 -6 -47 -14 -89 -39 -417 -124 -652 -170
-459 -88 -1083 -112 -1370 -52 -269 56 -582 174 -960 361 -95 46 -123 64 -102
64 15 1 27 -3 27 -8z m1283 2 c-13 -2 -33 -2 -45 0 -13 2 -3 4 22 4 25 0 35
-2 23 -4z m995 0 c-10 -2 -28 -2 -40 0 -13 2 -5 4 17 4 22 1 32 -1 23 -4z
m-740 -10 c-21 -2 -55 -2 -75 0 -21 2 -4 4 37 4 41 0 58 -2 38 -4z m539 0
c-20 -2 -52 -2 -70 0 -17 2 0 4 38 4 39 0 53 -2 32 -4z m898 -3 c3 -5 -3 -10
-14 -10 -11 0 -23 5 -26 10 -3 6 3 10 14 10 11 0 23 -4 26 -10z m315 0 c0 -5
-9 -10 -20 -10 -11 0 -20 5 -20 10 0 6 9 10 20 10 11 0 20 -4 20 -10z m-2643
-16 c-3 -3 -12 -4 -19 -1 -8 3 -5 6 6 6 11 1 17 -2 13 -5z m2243 -4 c0 -13
-20 -13 -40 0 -12 8 -9 10 13 10 15 0 27 -4 27 -10z m335 0 c-11 -5 -29 -8
-40 -8 -16 0 -15 2 5 8 34 11 60 11 35 0z m209 -15 c-10 -8 -23 -15 -27 -15
-10 0 -69 -25 -110 -46 -16 -8 -34 -14 -40 -14 -7 0 -24 -6 -39 -14 -15 -8
-42 -17 -60 -20 -23 -5 -15 1 26 19 33 14 63 25 67 25 5 0 41 15 81 34 104 48
139 59 102 31z m-2717 -1 c-3 -3 -12 -4 -19 -1 -8 3 -5 6 6 6 11 1 17 -2 13
-5z m2038 -9 c-61 -17 -85 -18 -85 -4 0 6 8 8 19 4 10 -3 29 -1 42 4 13 5 35
10 49 10 15 0 5 -6 -25 -14z m390 -4 c-31 -13 -91 -24 -83 -16 8 8 63 23 88
23 9 1 7 -3 -5 -7z m-2358 -7 c-3 -3 -12 -4 -19 -1 -8 3 -5 6 6 6 11 1 17 -2
13 -5z m40 -10 c-3 -3 -12 -4 -19 -1 -8 3 -5 6 6 6 11 1 17 -2 13 -5z m1806
-1 c-7 -2 -19 -2 -25 0 -7 3 -2 5 12 5 14 0 19 -2 13 -5z m-1766 -9 c-3 -3
-12 -4 -19 -1 -8 3 -5 6 6 6 11 1 17 -2 13 -5z m1706 -1 c-7 -2 -19 -2 -25 0
-7 3 -2 5 12 5 14 0 19 -2 13 -5z m477 -3 c0 -5 -9 -10 -19 -10 -11 0 -23 5
-26 10 -4 6 5 10 19 10 14 0 26 -4 26 -10z m-2143 -6 c-3 -3 -12 -4 -19 -1 -8
3 -5 6 6 6 11 1 17 -2 13 -5z m1596 -1 c-7 -2 -19 -2 -25 0 -7 3 -2 5 12 5 14
0 19 -2 13 -5z m-1546 -9 c-3 -3 -12 -4 -19 -1 -8 3 -5 6 6 6 11 1 17 -2 13
-5z m1476 -1 c-7 -2 -21 -2 -30 0 -10 3 -4 5 12 5 17 0 24 -2 18 -5z m532 -3
c3 -5 -3 -10 -14 -10 -12 0 -21 5 -21 10 0 6 6 10 14 10 8 0 18 -4 21 -10z
m-1952 -7 c-7 -2 -19 -2 -25 0 -7 3 -2 5 12 5 14 0 19 -2 13 -5z m1340 0 c-7
-2 -21 -2 -30 0 -10 3 -4 5 12 5 17 0 24 -2 18 -5z m-1280 -10 c-7 -2 -19 -2
-25 0 -7 3 -2 5 12 5 14 0 19 -2 13 -5z m1175 0 c-10 -2 -26 -2 -35 0 -10 3
-2 5 17 5 19 0 27 -2 18 -5z m671 3 c-7 -7 -271 -67 -281 -64 -5 2 51 18 124
35 130 31 165 37 157 29z m-1761 -13 c-10 -2 -26 -2 -35 0 -10 3 -2 5 17 5 19
0 27 -2 18 -5z m975 0 c-13 -2 -33 -2 -45 0 -13 2 -3 4 22 4 25 0 35 -2 23 -4z
m-775 -10 c-21 -2 -57 -2 -80 0 -24 2 -7 4 37 4 44 0 63 -2 43 -4z m609 0
c-20 -2 -52 -2 -70 0 -17 2 0 4 38 4 39 0 53 -2 32 -4z m646 -50 c-7 -2 -19
-2 -25 0 -7 3 -2 5 12 5 14 0 19 -2 13 -5z m-50 -10 c-7 -2 -19 -2 -25 0 -7 3
-2 5 12 5 14 0 19 -2 13 -5z m-1678 -23 c39 -11 54 -18 34 -15 -39 6 -130 33
-114 34 6 0 42 -8 80 -19z m1628 13 c-7 -2 -21 -2 -30 0 -10 3 -4 5 12 5 17 0
24 -2 18 -5z m2303 -8 c-11 -8 -25 -15 -30 -15 -6 1 0 7 14 15 32 19 40 18 16
0z m-2363 -2 c-7 -2 -21 -2 -30 0 -10 3 -4 5 12 5 17 0 24 -2 18 -5z m-65 -10
c-10 -2 -26 -2 -35 0 -10 3 -2 5 17 5 19 0 27 -2 18 -5z m-70 -10 c-10 -2 -26
-2 -35 0 -10 3 -2 5 17 5 19 0 27 -2 18 -5z m-1331 -9 c-3 -3 -12 -4 -19 -1
-8 3 -5 6 6 6 11 1 17 -2 13 -5z m1261 -1 c-10 -2 -28 -2 -40 0 -13 2 -5 4 17
4 22 1 32 -1 23 -4z m-1205 -10 c-7 -2 -21 -2 -30 0 -10 3 -4 5 12 5 17 0 24
-2 18 -5z m1110 0 c-13 -2 -33 -2 -45 0 -13 2 -3 4 22 4 25 0 35 -2 23 -4z
m-1050 -10 c-7 -2 -21 -2 -30 0 -10 3 -4 5 12 5 17 0 24 -2 18 -5z m955 0
c-16 -2 -40 -2 -55 0 -16 2 -3 4 27 4 30 0 43 -2 28 -4z m-855 -10 c-13 -2
-35 -2 -50 0 -16 2 -5 4 22 4 28 0 40 -2 28 -4z m724 0 c-20 -2 -52 -2 -70 0
-17 2 0 4 38 4 39 0 53 -2 32 -4z m-269 -10 c-75 -2 -201 -2 -280 0 -79 1 -17
3 137 3 154 0 218 -2 143 -3z"/>
<path d="M8500 1585 c-20 -24 -6 -28 15 -5 10 11 13 20 8 20 -6 0 -16 -7 -23
-15z"/>
<path d="M7655 799 c-18 -11 -24 -19 -14 -19 9 0 24 9 34 20 22 24 19 24 -20
-1z"/>
<path d="M710 1449 c0 -5 5 -7 10 -4 6 3 10 8 10 11 0 2 -4 4 -10 4 -5 0 -10
-5 -10 -11z"/>
<path d="M4265 1160 c11 -5 29 -8 40 -8 16 0 15 2 -5 8 -34 11 -60 11 -35 0z"/>
<path d="M7779 2233 c-13 -16 -12 -17 4 -4 16 13 21 21 13 21 -2 0 -10 -8 -17
-17z"/>
<path d="M7007 1494 c-37 -44 -25 -44 24 1 27 25 34 35 22 34 -10 0 -31 -16
-46 -35z"/>
<path d="M6938 1509 c-10 -5 -18 -7 -18 -4 0 3 -9 1 -21 -5 -11 -6 -28 -13
-37 -15 -35 -8 -197 -55 -207 -60 -14 -7 83 3 205 22 94 14 107 18 128 44 l24
29 -29 0 c-15 0 -36 -5 -45 -11z m-18 -13 c0 -2 -8 -10 -17 -17 -16 -13 -17
-12 -4 4 13 16 21 21 21 13z"/>
<path d="M6618 1413 c7 -3 16 -2 19 1 4 3 -2 6 -13 5 -11 0 -14 -3 -6 -6z"/>
</g>
</svg>
